<mxfile host="app.diagrams.net" modified="2021-02-18T12:43:57.837Z" agent="5.0 (Windows NT 10.0; Win64; x64) AppleWebKit/537.36 (KHTML, like Gecko) Chrome/88.0.4324.150 Safari/537.36 Edg/88.0.705.68" etag="2RexAeGyllA3yZfM5-Rx" version="14.4.2" type="github" pages="14">
  <diagram id="5_q2be7-I48zJRjlwxsN" name="Assumptions">
    <mxGraphModel dx="868" dy="482" grid="1" gridSize="10" guides="1" tooltips="1" connect="1" arrows="1" fold="1" page="1" pageScale="1" pageWidth="850" pageHeight="1100" math="0" shadow="0">
      <root>
        <mxCell id="CZ1OP2ssZbYdBotJiWS--0" />
        <mxCell id="CZ1OP2ssZbYdBotJiWS--1" parent="CZ1OP2ssZbYdBotJiWS--0" />
        <mxCell id="CZ1OP2ssZbYdBotJiWS--2" value="&lt;h1&gt;ASP.NET Modernization&lt;/h1&gt;&lt;p&gt;Assumptions:&amp;nbsp;&lt;/p&gt;&lt;p&gt;- Rewrite (big-bang) is not an option&amp;nbsp;&lt;/p&gt;&lt;p&gt;Lorem ipsum dolor sit amet, consectetur adipisicing elit, sed do eiusmod tempor incididunt ut labore et dolore magna aliqua.&lt;/p&gt;" style="text;html=1;strokeColor=none;fillColor=none;spacing=5;spacingTop=-20;whiteSpace=wrap;overflow=hidden;rounded=0;" parent="CZ1OP2ssZbYdBotJiWS--1" vertex="1">
          <mxGeometry x="40" y="10" width="780" height="120" as="geometry" />
        </mxCell>
      </root>
    </mxGraphModel>
  </diagram>
  <diagram id="lvWDW3rFzITsmaK6LsOX" name="Transition State">
    <mxGraphModel dx="868" dy="482" grid="1" gridSize="10" guides="1" tooltips="1" connect="1" arrows="1" fold="1" page="1" pageScale="1" pageWidth="850" pageHeight="1100" math="0" shadow="0">
      <root>
        <mxCell id="E8E2uUzIZNj6TESot0rZ-0" />
        <mxCell id="E8E2uUzIZNj6TESot0rZ-1" parent="E8E2uUzIZNj6TESot0rZ-0" />
        <mxCell id="E8E2uUzIZNj6TESot0rZ-30" style="edgeStyle=none;rounded=0;orthogonalLoop=1;jettySize=auto;html=1;exitX=1;exitY=0.5;exitDx=0;exitDy=0;entryX=0;entryY=1;entryDx=0;entryDy=-15;entryPerimeter=0;endArrow=none;endFill=0;fontSize=10;" parent="E8E2uUzIZNj6TESot0rZ-1" source="E8E2uUzIZNj6TESot0rZ-6" target="E8E2uUzIZNj6TESot0rZ-21" edge="1">
          <mxGeometry relative="1" as="geometry" />
        </mxCell>
        <mxCell id="E8E2uUzIZNj6TESot0rZ-31" style="edgeStyle=none;rounded=0;orthogonalLoop=1;jettySize=auto;html=1;entryX=0;entryY=0;entryDx=0;entryDy=39;entryPerimeter=0;endArrow=none;endFill=0;fontSize=10;exitX=1;exitY=0.5;exitDx=0;exitDy=0;" parent="E8E2uUzIZNj6TESot0rZ-1" source="E8E2uUzIZNj6TESot0rZ-6" target="E8E2uUzIZNj6TESot0rZ-22" edge="1">
          <mxGeometry relative="1" as="geometry" />
        </mxCell>
        <mxCell id="E8E2uUzIZNj6TESot0rZ-6" value="APIs" style="rounded=1;whiteSpace=wrap;html=1;fontSize=10;verticalAlign=top;arcSize=7;" parent="E8E2uUzIZNj6TESot0rZ-1" vertex="1">
          <mxGeometry x="483" y="340" width="120" height="180" as="geometry" />
        </mxCell>
        <mxCell id="E8E2uUzIZNj6TESot0rZ-27" style="edgeStyle=none;rounded=0;orthogonalLoop=1;jettySize=auto;html=1;entryX=0;entryY=0.5;entryDx=0;entryDy=0;endArrow=none;endFill=0;fontSize=10;" parent="E8E2uUzIZNj6TESot0rZ-1" source="E8E2uUzIZNj6TESot0rZ-3" target="E8E2uUzIZNj6TESot0rZ-23" edge="1">
          <mxGeometry relative="1" as="geometry" />
        </mxCell>
        <mxCell id="E8E2uUzIZNj6TESot0rZ-3" value="Browser" style="rounded=1;whiteSpace=wrap;html=1;fontSize=10;" parent="E8E2uUzIZNj6TESot0rZ-1" vertex="1">
          <mxGeometry x="173" y="120" width="90" height="60" as="geometry" />
        </mxCell>
        <mxCell id="E8E2uUzIZNj6TESot0rZ-13" style="edgeStyle=orthogonalEdgeStyle;rounded=0;orthogonalLoop=1;jettySize=auto;html=1;entryX=0;entryY=0.5;entryDx=0;entryDy=0;fontSize=10;endArrow=none;endFill=0;" parent="E8E2uUzIZNj6TESot0rZ-1" source="E8E2uUzIZNj6TESot0rZ-4" target="E8E2uUzIZNj6TESot0rZ-5" edge="1">
          <mxGeometry relative="1" as="geometry" />
        </mxCell>
        <mxCell id="E8E2uUzIZNj6TESot0rZ-4" value="Browser&lt;br&gt;Angular/React/Vue&lt;br&gt;SPA" style="rounded=1;whiteSpace=wrap;html=1;fontSize=10;" parent="E8E2uUzIZNj6TESot0rZ-1" vertex="1">
          <mxGeometry x="173" y="398" width="90" height="60" as="geometry" />
        </mxCell>
        <mxCell id="E8E2uUzIZNj6TESot0rZ-14" style="rounded=0;orthogonalLoop=1;jettySize=auto;html=1;entryX=0;entryY=0.5;entryDx=0;entryDy=0;endArrow=none;endFill=0;fontSize=10;exitX=1;exitY=0.5;exitDx=0;exitDy=0;" parent="E8E2uUzIZNj6TESot0rZ-1" source="E8E2uUzIZNj6TESot0rZ-5" target="E8E2uUzIZNj6TESot0rZ-7" edge="1">
          <mxGeometry relative="1" as="geometry" />
        </mxCell>
        <mxCell id="E8E2uUzIZNj6TESot0rZ-15" style="edgeStyle=none;rounded=0;orthogonalLoop=1;jettySize=auto;html=1;entryX=0;entryY=0.5;entryDx=0;entryDy=0;endArrow=none;endFill=0;fontSize=10;exitX=1;exitY=0.5;exitDx=0;exitDy=0;" parent="E8E2uUzIZNj6TESot0rZ-1" source="E8E2uUzIZNj6TESot0rZ-5" target="E8E2uUzIZNj6TESot0rZ-8" edge="1">
          <mxGeometry relative="1" as="geometry" />
        </mxCell>
        <mxCell id="E8E2uUzIZNj6TESot0rZ-16" style="edgeStyle=none;rounded=0;orthogonalLoop=1;jettySize=auto;html=1;endArrow=none;endFill=0;fontSize=10;exitX=1;exitY=0.5;exitDx=0;exitDy=0;" parent="E8E2uUzIZNj6TESot0rZ-1" source="E8E2uUzIZNj6TESot0rZ-5" target="E8E2uUzIZNj6TESot0rZ-9" edge="1">
          <mxGeometry relative="1" as="geometry" />
        </mxCell>
        <mxCell id="E8E2uUzIZNj6TESot0rZ-17" style="edgeStyle=none;rounded=0;orthogonalLoop=1;jettySize=auto;html=1;entryX=0;entryY=0.5;entryDx=0;entryDy=0;endArrow=none;endFill=0;fontSize=10;exitX=1;exitY=0.5;exitDx=0;exitDy=0;" parent="E8E2uUzIZNj6TESot0rZ-1" source="E8E2uUzIZNj6TESot0rZ-5" target="E8E2uUzIZNj6TESot0rZ-10" edge="1">
          <mxGeometry relative="1" as="geometry" />
        </mxCell>
        <mxCell id="E8E2uUzIZNj6TESot0rZ-18" style="edgeStyle=none;rounded=0;orthogonalLoop=1;jettySize=auto;html=1;entryX=0;entryY=0.5;entryDx=0;entryDy=0;endArrow=none;endFill=0;fontSize=10;exitX=1;exitY=0.5;exitDx=0;exitDy=0;" parent="E8E2uUzIZNj6TESot0rZ-1" source="E8E2uUzIZNj6TESot0rZ-5" target="E8E2uUzIZNj6TESot0rZ-11" edge="1">
          <mxGeometry relative="1" as="geometry" />
        </mxCell>
        <mxCell id="E8E2uUzIZNj6TESot0rZ-19" style="edgeStyle=none;rounded=0;orthogonalLoop=1;jettySize=auto;html=1;entryX=0;entryY=0.5;entryDx=0;entryDy=0;endArrow=none;endFill=0;fontSize=10;exitX=1;exitY=0.5;exitDx=0;exitDy=0;" parent="E8E2uUzIZNj6TESot0rZ-1" source="E8E2uUzIZNj6TESot0rZ-5" target="E8E2uUzIZNj6TESot0rZ-12" edge="1">
          <mxGeometry relative="1" as="geometry" />
        </mxCell>
        <mxCell id="E8E2uUzIZNj6TESot0rZ-5" value="API Gateway" style="rounded=1;whiteSpace=wrap;html=1;fontSize=10;" parent="E8E2uUzIZNj6TESot0rZ-1" vertex="1">
          <mxGeometry x="325" y="398" width="90" height="60" as="geometry" />
        </mxCell>
        <mxCell id="E8E2uUzIZNj6TESot0rZ-7" value="Client" style="rounded=0;whiteSpace=wrap;html=1;fontSize=10;" parent="E8E2uUzIZNj6TESot0rZ-1" vertex="1">
          <mxGeometry x="500" y="370" width="90" height="20" as="geometry" />
        </mxCell>
        <mxCell id="E8E2uUzIZNj6TESot0rZ-8" value="Account" style="rounded=0;whiteSpace=wrap;html=1;fontSize=10;" parent="E8E2uUzIZNj6TESot0rZ-1" vertex="1">
          <mxGeometry x="500" y="393" width="90" height="20" as="geometry" />
        </mxCell>
        <mxCell id="E8E2uUzIZNj6TESot0rZ-9" value="Portfolio" style="rounded=0;whiteSpace=wrap;html=1;fontSize=10;" parent="E8E2uUzIZNj6TESot0rZ-1" vertex="1">
          <mxGeometry x="500" y="417" width="90" height="20" as="geometry" />
        </mxCell>
        <mxCell id="E8E2uUzIZNj6TESot0rZ-10" value="Transactions" style="rounded=0;whiteSpace=wrap;html=1;fontSize=10;" parent="E8E2uUzIZNj6TESot0rZ-1" vertex="1">
          <mxGeometry x="500" y="440" width="90" height="20" as="geometry" />
        </mxCell>
        <mxCell id="E8E2uUzIZNj6TESot0rZ-11" value="Benchmarks" style="rounded=0;whiteSpace=wrap;html=1;fontSize=10;" parent="E8E2uUzIZNj6TESot0rZ-1" vertex="1">
          <mxGeometry x="500" y="463" width="90" height="20" as="geometry" />
        </mxCell>
        <mxCell id="E8E2uUzIZNj6TESot0rZ-12" value="Securities" style="rounded=0;whiteSpace=wrap;html=1;fontSize=10;" parent="E8E2uUzIZNj6TESot0rZ-1" vertex="1">
          <mxGeometry x="500" y="487" width="90" height="20" as="geometry" />
        </mxCell>
        <mxCell id="E8E2uUzIZNj6TESot0rZ-20" style="edgeStyle=none;rounded=0;orthogonalLoop=1;jettySize=auto;html=1;exitX=0.5;exitY=1;exitDx=0;exitDy=0;endArrow=none;endFill=0;fontSize=10;" parent="E8E2uUzIZNj6TESot0rZ-1" source="E8E2uUzIZNj6TESot0rZ-3" target="E8E2uUzIZNj6TESot0rZ-3" edge="1">
          <mxGeometry relative="1" as="geometry" />
        </mxCell>
        <mxCell id="E8E2uUzIZNj6TESot0rZ-21" value="MSSQL" style="shape=cylinder3;whiteSpace=wrap;html=1;boundedLbl=1;backgroundOutline=1;size=15;fontSize=10;" parent="E8E2uUzIZNj6TESot0rZ-1" vertex="1">
          <mxGeometry x="725" y="204" width="60" height="62" as="geometry" />
        </mxCell>
        <mxCell id="E8E2uUzIZNj6TESot0rZ-22" value="Oracle" style="shape=cylinder3;whiteSpace=wrap;html=1;boundedLbl=1;backgroundOutline=1;size=15;fontSize=10;" parent="E8E2uUzIZNj6TESot0rZ-1" vertex="1">
          <mxGeometry x="725" y="287" width="60" height="62" as="geometry" />
        </mxCell>
        <mxCell id="E8E2uUzIZNj6TESot0rZ-23" value="ASP.NET Application" style="rounded=1;whiteSpace=wrap;html=1;fontSize=10;verticalAlign=top;arcSize=5;" parent="E8E2uUzIZNj6TESot0rZ-1" vertex="1">
          <mxGeometry x="483" y="80" width="120" height="140" as="geometry" />
        </mxCell>
        <mxCell id="E8E2uUzIZNj6TESot0rZ-24" value="Presentation&amp;nbsp;" style="rounded=0;whiteSpace=wrap;html=1;fontSize=10;" parent="E8E2uUzIZNj6TESot0rZ-1" vertex="1">
          <mxGeometry x="493" y="110" width="100" height="30" as="geometry" />
        </mxCell>
        <mxCell id="E8E2uUzIZNj6TESot0rZ-25" value="Business" style="rounded=0;whiteSpace=wrap;html=1;fontSize=10;" parent="E8E2uUzIZNj6TESot0rZ-1" vertex="1">
          <mxGeometry x="493" y="145" width="100" height="30" as="geometry" />
        </mxCell>
        <mxCell id="E8E2uUzIZNj6TESot0rZ-28" style="edgeStyle=none;rounded=0;orthogonalLoop=1;jettySize=auto;html=1;exitX=1;exitY=0.5;exitDx=0;exitDy=0;entryX=0;entryY=0.5;entryDx=0;entryDy=0;entryPerimeter=0;endArrow=none;endFill=0;fontSize=10;" parent="E8E2uUzIZNj6TESot0rZ-1" source="E8E2uUzIZNj6TESot0rZ-26" target="E8E2uUzIZNj6TESot0rZ-21" edge="1">
          <mxGeometry relative="1" as="geometry" />
        </mxCell>
        <mxCell id="E8E2uUzIZNj6TESot0rZ-29" style="edgeStyle=none;rounded=0;orthogonalLoop=1;jettySize=auto;html=1;entryX=0;entryY=0.5;entryDx=0;entryDy=0;entryPerimeter=0;endArrow=none;endFill=0;fontSize=10;exitX=1;exitY=0.5;exitDx=0;exitDy=0;" parent="E8E2uUzIZNj6TESot0rZ-1" source="E8E2uUzIZNj6TESot0rZ-26" target="E8E2uUzIZNj6TESot0rZ-22" edge="1">
          <mxGeometry relative="1" as="geometry" />
        </mxCell>
        <mxCell id="E8E2uUzIZNj6TESot0rZ-26" value="Database Access" style="rounded=0;whiteSpace=wrap;html=1;fontSize=10;" parent="E8E2uUzIZNj6TESot0rZ-1" vertex="1">
          <mxGeometry x="493" y="180" width="100" height="30" as="geometry" />
        </mxCell>
        <mxCell id="E8E2uUzIZNj6TESot0rZ-32" value="" style="endArrow=none;html=1;fontSize=10;strokeWidth=3;" parent="E8E2uUzIZNj6TESot0rZ-1" edge="1">
          <mxGeometry width="50" height="50" relative="1" as="geometry">
            <mxPoint x="172" y="279" as="sourcePoint" />
            <mxPoint x="602" y="279" as="targetPoint" />
          </mxGeometry>
        </mxCell>
        <mxCell id="E8E2uUzIZNj6TESot0rZ-33" value="&lt;b&gt;&lt;font style=&quot;font-size: 12px&quot;&gt;Legacy&lt;/font&gt;&lt;/b&gt;" style="text;html=1;strokeColor=#666666;fillColor=#f5f5f5;align=center;verticalAlign=middle;whiteSpace=wrap;rounded=0;fontSize=10;fontStyle=2;fontColor=#333333;" parent="E8E2uUzIZNj6TESot0rZ-1" vertex="1">
          <mxGeometry x="172" y="250" width="70" height="20" as="geometry" />
        </mxCell>
        <mxCell id="E8E2uUzIZNj6TESot0rZ-34" value="&lt;b&gt;&lt;font style=&quot;font-size: 12px&quot;&gt;Next-gen&lt;/font&gt;&lt;/b&gt;" style="text;html=1;strokeColor=#666666;fillColor=#f5f5f5;align=center;verticalAlign=middle;whiteSpace=wrap;rounded=0;fontSize=10;fontStyle=2;fontColor=#333333;" parent="E8E2uUzIZNj6TESot0rZ-1" vertex="1">
          <mxGeometry x="172" y="290" width="70" height="20" as="geometry" />
        </mxCell>
        <mxCell id="E8E2uUzIZNj6TESot0rZ-36" style="edgeStyle=none;rounded=0;orthogonalLoop=1;jettySize=auto;html=1;entryX=0;entryY=0.5;entryDx=0;entryDy=0;endArrow=none;endFill=0;strokeWidth=1;fontSize=10;exitX=1;exitY=0.3333333333333333;exitDx=0;exitDy=0;exitPerimeter=0;" parent="E8E2uUzIZNj6TESot0rZ-1" source="E8E2uUzIZNj6TESot0rZ-35" target="E8E2uUzIZNj6TESot0rZ-3" edge="1">
          <mxGeometry relative="1" as="geometry">
            <mxPoint x="22" y="280" as="sourcePoint" />
          </mxGeometry>
        </mxCell>
        <mxCell id="E8E2uUzIZNj6TESot0rZ-37" style="edgeStyle=none;rounded=0;orthogonalLoop=1;jettySize=auto;html=1;entryX=0;entryY=0.5;entryDx=0;entryDy=0;endArrow=none;endFill=0;strokeWidth=1;fontSize=10;exitX=1;exitY=0.3333333333333333;exitDx=0;exitDy=0;exitPerimeter=0;" parent="E8E2uUzIZNj6TESot0rZ-1" source="E8E2uUzIZNj6TESot0rZ-35" target="E8E2uUzIZNj6TESot0rZ-4" edge="1">
          <mxGeometry relative="1" as="geometry">
            <mxPoint x="22" y="280" as="sourcePoint" />
          </mxGeometry>
        </mxCell>
        <mxCell id="E8E2uUzIZNj6TESot0rZ-35" value="End-user" style="shape=umlActor;verticalLabelPosition=bottom;verticalAlign=top;html=1;outlineConnect=0;fontSize=10;align=center;" parent="E8E2uUzIZNj6TESot0rZ-1" vertex="1">
          <mxGeometry x="70" y="259" width="30" height="60" as="geometry" />
        </mxCell>
        <mxCell id="E8E2uUzIZNj6TESot0rZ-40" value="&lt;b style=&quot;font-size: 9px&quot;&gt;&lt;font style=&quot;font-size: 9px&quot;&gt;MEAN, MERN, MEVN&lt;br&gt;Front-end and Back-end Framework&lt;br&gt;&lt;/font&gt;&lt;/b&gt;" style="text;html=1;strokeColor=#d6b656;fillColor=#fff2cc;align=center;verticalAlign=middle;whiteSpace=wrap;rounded=0;fontSize=9;fontStyle=2;" parent="E8E2uUzIZNj6TESot0rZ-1" vertex="1">
          <mxGeometry x="172" y="488" width="169" height="30" as="geometry" />
        </mxCell>
      </root>
    </mxGraphModel>
  </diagram>
  <diagram name="Target State" id="V9jOOG6ZWp_fnIZ91cdk">
    <mxGraphModel dx="868" dy="482" grid="1" gridSize="10" guides="1" tooltips="1" connect="1" arrows="1" fold="1" page="1" pageScale="1" pageWidth="850" pageHeight="1100" math="0" shadow="0">
      <root>
        <mxCell id="WKY3R2WfsAf2Li8Q5V7j-0" />
        <mxCell id="WKY3R2WfsAf2Li8Q5V7j-1" parent="WKY3R2WfsAf2Li8Q5V7j-0" />
        <mxCell id="WKY3R2WfsAf2Li8Q5V7j-2" style="edgeStyle=none;rounded=0;orthogonalLoop=1;jettySize=auto;html=1;exitX=1;exitY=0.5;exitDx=0;exitDy=0;entryX=0;entryY=1;entryDx=0;entryDy=-15;entryPerimeter=0;endArrow=none;endFill=0;fontSize=10;" parent="WKY3R2WfsAf2Li8Q5V7j-1" source="WKY3R2WfsAf2Li8Q5V7j-4" target="WKY3R2WfsAf2Li8Q5V7j-23" edge="1">
          <mxGeometry relative="1" as="geometry" />
        </mxCell>
        <mxCell id="WKY3R2WfsAf2Li8Q5V7j-3" style="edgeStyle=none;rounded=0;orthogonalLoop=1;jettySize=auto;html=1;entryX=0;entryY=0;entryDx=0;entryDy=39;entryPerimeter=0;endArrow=none;endFill=0;fontSize=10;exitX=1;exitY=0.5;exitDx=0;exitDy=0;" parent="WKY3R2WfsAf2Li8Q5V7j-1" source="WKY3R2WfsAf2Li8Q5V7j-4" target="WKY3R2WfsAf2Li8Q5V7j-24" edge="1">
          <mxGeometry relative="1" as="geometry" />
        </mxCell>
        <mxCell id="WKY3R2WfsAf2Li8Q5V7j-4" value="APIs" style="rounded=1;whiteSpace=wrap;html=1;fontSize=10;verticalAlign=top;arcSize=7;" parent="WKY3R2WfsAf2Li8Q5V7j-1" vertex="1">
          <mxGeometry x="483" y="340" width="120" height="180" as="geometry" />
        </mxCell>
        <mxCell id="WKY3R2WfsAf2Li8Q5V7j-5" style="edgeStyle=none;rounded=0;orthogonalLoop=1;jettySize=auto;html=1;entryX=0;entryY=0.5;entryDx=0;entryDy=0;endArrow=none;endFill=0;fontSize=10;" parent="WKY3R2WfsAf2Li8Q5V7j-1" source="WKY3R2WfsAf2Li8Q5V7j-6" target="WKY3R2WfsAf2Li8Q5V7j-25" edge="1">
          <mxGeometry relative="1" as="geometry" />
        </mxCell>
        <mxCell id="WKY3R2WfsAf2Li8Q5V7j-6" value="Browser" style="rounded=1;whiteSpace=wrap;html=1;fontSize=10;" parent="WKY3R2WfsAf2Li8Q5V7j-1" vertex="1">
          <mxGeometry x="173" y="120" width="90" height="60" as="geometry" />
        </mxCell>
        <mxCell id="WKY3R2WfsAf2Li8Q5V7j-7" style="edgeStyle=orthogonalEdgeStyle;rounded=0;orthogonalLoop=1;jettySize=auto;html=1;entryX=0;entryY=0.5;entryDx=0;entryDy=0;fontSize=10;endArrow=none;endFill=0;" parent="WKY3R2WfsAf2Li8Q5V7j-1" source="WKY3R2WfsAf2Li8Q5V7j-8" target="WKY3R2WfsAf2Li8Q5V7j-15" edge="1">
          <mxGeometry relative="1" as="geometry" />
        </mxCell>
        <mxCell id="WKY3R2WfsAf2Li8Q5V7j-8" value="Browser&lt;br&gt;Angular/React/Vue&lt;br&gt;SPA" style="rounded=1;whiteSpace=wrap;html=1;fontSize=10;" parent="WKY3R2WfsAf2Li8Q5V7j-1" vertex="1">
          <mxGeometry x="173" y="398" width="90" height="60" as="geometry" />
        </mxCell>
        <mxCell id="WKY3R2WfsAf2Li8Q5V7j-9" style="rounded=0;orthogonalLoop=1;jettySize=auto;html=1;entryX=0;entryY=0.5;entryDx=0;entryDy=0;endArrow=none;endFill=0;fontSize=10;exitX=1;exitY=0.5;exitDx=0;exitDy=0;" parent="WKY3R2WfsAf2Li8Q5V7j-1" source="WKY3R2WfsAf2Li8Q5V7j-15" target="WKY3R2WfsAf2Li8Q5V7j-16" edge="1">
          <mxGeometry relative="1" as="geometry" />
        </mxCell>
        <mxCell id="WKY3R2WfsAf2Li8Q5V7j-10" style="edgeStyle=none;rounded=0;orthogonalLoop=1;jettySize=auto;html=1;entryX=0;entryY=0.5;entryDx=0;entryDy=0;endArrow=none;endFill=0;fontSize=10;exitX=1;exitY=0.5;exitDx=0;exitDy=0;" parent="WKY3R2WfsAf2Li8Q5V7j-1" source="WKY3R2WfsAf2Li8Q5V7j-15" target="WKY3R2WfsAf2Li8Q5V7j-17" edge="1">
          <mxGeometry relative="1" as="geometry" />
        </mxCell>
        <mxCell id="WKY3R2WfsAf2Li8Q5V7j-11" style="edgeStyle=none;rounded=0;orthogonalLoop=1;jettySize=auto;html=1;endArrow=none;endFill=0;fontSize=10;exitX=1;exitY=0.5;exitDx=0;exitDy=0;" parent="WKY3R2WfsAf2Li8Q5V7j-1" source="WKY3R2WfsAf2Li8Q5V7j-15" target="WKY3R2WfsAf2Li8Q5V7j-18" edge="1">
          <mxGeometry relative="1" as="geometry" />
        </mxCell>
        <mxCell id="WKY3R2WfsAf2Li8Q5V7j-12" style="edgeStyle=none;rounded=0;orthogonalLoop=1;jettySize=auto;html=1;entryX=0;entryY=0.5;entryDx=0;entryDy=0;endArrow=none;endFill=0;fontSize=10;exitX=1;exitY=0.5;exitDx=0;exitDy=0;" parent="WKY3R2WfsAf2Li8Q5V7j-1" source="WKY3R2WfsAf2Li8Q5V7j-15" target="WKY3R2WfsAf2Li8Q5V7j-19" edge="1">
          <mxGeometry relative="1" as="geometry" />
        </mxCell>
        <mxCell id="WKY3R2WfsAf2Li8Q5V7j-13" style="edgeStyle=none;rounded=0;orthogonalLoop=1;jettySize=auto;html=1;entryX=0;entryY=0.5;entryDx=0;entryDy=0;endArrow=none;endFill=0;fontSize=10;exitX=1;exitY=0.5;exitDx=0;exitDy=0;" parent="WKY3R2WfsAf2Li8Q5V7j-1" source="WKY3R2WfsAf2Li8Q5V7j-15" target="WKY3R2WfsAf2Li8Q5V7j-20" edge="1">
          <mxGeometry relative="1" as="geometry" />
        </mxCell>
        <mxCell id="WKY3R2WfsAf2Li8Q5V7j-14" style="edgeStyle=none;rounded=0;orthogonalLoop=1;jettySize=auto;html=1;entryX=0;entryY=0.5;entryDx=0;entryDy=0;endArrow=none;endFill=0;fontSize=10;exitX=1;exitY=0.5;exitDx=0;exitDy=0;" parent="WKY3R2WfsAf2Li8Q5V7j-1" source="WKY3R2WfsAf2Li8Q5V7j-15" target="WKY3R2WfsAf2Li8Q5V7j-21" edge="1">
          <mxGeometry relative="1" as="geometry" />
        </mxCell>
        <mxCell id="WKY3R2WfsAf2Li8Q5V7j-15" value="API Gateway" style="rounded=1;whiteSpace=wrap;html=1;fontSize=10;" parent="WKY3R2WfsAf2Li8Q5V7j-1" vertex="1">
          <mxGeometry x="325" y="398" width="90" height="60" as="geometry" />
        </mxCell>
        <mxCell id="WKY3R2WfsAf2Li8Q5V7j-16" value="Client" style="rounded=0;whiteSpace=wrap;html=1;fontSize=10;" parent="WKY3R2WfsAf2Li8Q5V7j-1" vertex="1">
          <mxGeometry x="500" y="370" width="90" height="20" as="geometry" />
        </mxCell>
        <mxCell id="WKY3R2WfsAf2Li8Q5V7j-17" value="Account" style="rounded=0;whiteSpace=wrap;html=1;fontSize=10;" parent="WKY3R2WfsAf2Li8Q5V7j-1" vertex="1">
          <mxGeometry x="500" y="393" width="90" height="20" as="geometry" />
        </mxCell>
        <mxCell id="WKY3R2WfsAf2Li8Q5V7j-18" value="Portfolio" style="rounded=0;whiteSpace=wrap;html=1;fontSize=10;" parent="WKY3R2WfsAf2Li8Q5V7j-1" vertex="1">
          <mxGeometry x="500" y="417" width="90" height="20" as="geometry" />
        </mxCell>
        <mxCell id="WKY3R2WfsAf2Li8Q5V7j-19" value="Transactions" style="rounded=0;whiteSpace=wrap;html=1;fontSize=10;" parent="WKY3R2WfsAf2Li8Q5V7j-1" vertex="1">
          <mxGeometry x="500" y="440" width="90" height="20" as="geometry" />
        </mxCell>
        <mxCell id="WKY3R2WfsAf2Li8Q5V7j-20" value="Benchmarks" style="rounded=0;whiteSpace=wrap;html=1;fontSize=10;" parent="WKY3R2WfsAf2Li8Q5V7j-1" vertex="1">
          <mxGeometry x="500" y="463" width="90" height="20" as="geometry" />
        </mxCell>
        <mxCell id="WKY3R2WfsAf2Li8Q5V7j-21" value="Securities" style="rounded=0;whiteSpace=wrap;html=1;fontSize=10;" parent="WKY3R2WfsAf2Li8Q5V7j-1" vertex="1">
          <mxGeometry x="500" y="487" width="90" height="20" as="geometry" />
        </mxCell>
        <mxCell id="WKY3R2WfsAf2Li8Q5V7j-22" style="edgeStyle=none;rounded=0;orthogonalLoop=1;jettySize=auto;html=1;exitX=0.5;exitY=1;exitDx=0;exitDy=0;endArrow=none;endFill=0;fontSize=10;" parent="WKY3R2WfsAf2Li8Q5V7j-1" source="WKY3R2WfsAf2Li8Q5V7j-6" target="WKY3R2WfsAf2Li8Q5V7j-6" edge="1">
          <mxGeometry relative="1" as="geometry" />
        </mxCell>
        <mxCell id="WKY3R2WfsAf2Li8Q5V7j-23" value="MSSQL" style="shape=cylinder3;whiteSpace=wrap;html=1;boundedLbl=1;backgroundOutline=1;size=15;fontSize=10;" parent="WKY3R2WfsAf2Li8Q5V7j-1" vertex="1">
          <mxGeometry x="725" y="204" width="60" height="62" as="geometry" />
        </mxCell>
        <mxCell id="WKY3R2WfsAf2Li8Q5V7j-24" value="Oracle" style="shape=cylinder3;whiteSpace=wrap;html=1;boundedLbl=1;backgroundOutline=1;size=15;fontSize=10;" parent="WKY3R2WfsAf2Li8Q5V7j-1" vertex="1">
          <mxGeometry x="725" y="287" width="60" height="62" as="geometry" />
        </mxCell>
        <mxCell id="WKY3R2WfsAf2Li8Q5V7j-25" value="ASP.NET Application" style="rounded=1;whiteSpace=wrap;html=1;fontSize=10;verticalAlign=top;arcSize=5;" parent="WKY3R2WfsAf2Li8Q5V7j-1" vertex="1">
          <mxGeometry x="483" y="80" width="120" height="140" as="geometry" />
        </mxCell>
        <mxCell id="WKY3R2WfsAf2Li8Q5V7j-26" value="Presentation&amp;nbsp;" style="rounded=0;whiteSpace=wrap;html=1;fontSize=10;" parent="WKY3R2WfsAf2Li8Q5V7j-1" vertex="1">
          <mxGeometry x="493" y="110" width="100" height="30" as="geometry" />
        </mxCell>
        <mxCell id="WKY3R2WfsAf2Li8Q5V7j-27" value="Business" style="rounded=0;whiteSpace=wrap;html=1;fontSize=10;" parent="WKY3R2WfsAf2Li8Q5V7j-1" vertex="1">
          <mxGeometry x="493" y="145" width="100" height="30" as="geometry" />
        </mxCell>
        <mxCell id="WKY3R2WfsAf2Li8Q5V7j-28" style="edgeStyle=none;rounded=0;orthogonalLoop=1;jettySize=auto;html=1;exitX=1;exitY=0.5;exitDx=0;exitDy=0;entryX=0;entryY=0.5;entryDx=0;entryDy=0;entryPerimeter=0;endArrow=none;endFill=0;fontSize=10;" parent="WKY3R2WfsAf2Li8Q5V7j-1" source="WKY3R2WfsAf2Li8Q5V7j-30" target="WKY3R2WfsAf2Li8Q5V7j-23" edge="1">
          <mxGeometry relative="1" as="geometry" />
        </mxCell>
        <mxCell id="WKY3R2WfsAf2Li8Q5V7j-29" style="edgeStyle=none;rounded=0;orthogonalLoop=1;jettySize=auto;html=1;entryX=0;entryY=0.5;entryDx=0;entryDy=0;entryPerimeter=0;endArrow=none;endFill=0;fontSize=10;exitX=1;exitY=0.5;exitDx=0;exitDy=0;" parent="WKY3R2WfsAf2Li8Q5V7j-1" source="WKY3R2WfsAf2Li8Q5V7j-30" target="WKY3R2WfsAf2Li8Q5V7j-24" edge="1">
          <mxGeometry relative="1" as="geometry" />
        </mxCell>
        <mxCell id="WKY3R2WfsAf2Li8Q5V7j-30" value="Database Access" style="rounded=0;whiteSpace=wrap;html=1;fontSize=10;" parent="WKY3R2WfsAf2Li8Q5V7j-1" vertex="1">
          <mxGeometry x="493" y="180" width="100" height="30" as="geometry" />
        </mxCell>
        <mxCell id="WKY3R2WfsAf2Li8Q5V7j-31" value="" style="endArrow=none;html=1;fontSize=10;strokeWidth=3;" parent="WKY3R2WfsAf2Li8Q5V7j-1" edge="1">
          <mxGeometry width="50" height="50" relative="1" as="geometry">
            <mxPoint x="172" y="279" as="sourcePoint" />
            <mxPoint x="602" y="279" as="targetPoint" />
          </mxGeometry>
        </mxCell>
        <mxCell id="WKY3R2WfsAf2Li8Q5V7j-32" value="&lt;b&gt;&lt;font style=&quot;font-size: 12px&quot;&gt;Legacy&lt;/font&gt;&lt;/b&gt;" style="text;html=1;strokeColor=#666666;fillColor=#f5f5f5;align=center;verticalAlign=middle;whiteSpace=wrap;rounded=0;fontSize=10;fontStyle=2;fontColor=#333333;" parent="WKY3R2WfsAf2Li8Q5V7j-1" vertex="1">
          <mxGeometry x="172" y="250" width="70" height="20" as="geometry" />
        </mxCell>
        <mxCell id="WKY3R2WfsAf2Li8Q5V7j-33" value="&lt;b&gt;&lt;font style=&quot;font-size: 12px&quot;&gt;Next-gen&lt;/font&gt;&lt;/b&gt;" style="text;html=1;strokeColor=#666666;fillColor=#f5f5f5;align=center;verticalAlign=middle;whiteSpace=wrap;rounded=0;fontSize=10;fontStyle=2;fontColor=#333333;" parent="WKY3R2WfsAf2Li8Q5V7j-1" vertex="1">
          <mxGeometry x="172" y="290" width="70" height="20" as="geometry" />
        </mxCell>
        <mxCell id="WKY3R2WfsAf2Li8Q5V7j-34" style="edgeStyle=none;rounded=0;orthogonalLoop=1;jettySize=auto;html=1;entryX=0;entryY=0.5;entryDx=0;entryDy=0;endArrow=none;endFill=0;strokeWidth=1;fontSize=10;exitX=1;exitY=0.3333333333333333;exitDx=0;exitDy=0;exitPerimeter=0;" parent="WKY3R2WfsAf2Li8Q5V7j-1" source="WKY3R2WfsAf2Li8Q5V7j-36" target="WKY3R2WfsAf2Li8Q5V7j-6" edge="1">
          <mxGeometry relative="1" as="geometry">
            <mxPoint x="22" y="280" as="sourcePoint" />
          </mxGeometry>
        </mxCell>
        <mxCell id="WKY3R2WfsAf2Li8Q5V7j-35" style="edgeStyle=none;rounded=0;orthogonalLoop=1;jettySize=auto;html=1;entryX=0;entryY=0.5;entryDx=0;entryDy=0;endArrow=none;endFill=0;strokeWidth=1;fontSize=10;exitX=1;exitY=0.3333333333333333;exitDx=0;exitDy=0;exitPerimeter=0;" parent="WKY3R2WfsAf2Li8Q5V7j-1" source="WKY3R2WfsAf2Li8Q5V7j-36" target="WKY3R2WfsAf2Li8Q5V7j-8" edge="1">
          <mxGeometry relative="1" as="geometry">
            <mxPoint x="22" y="280" as="sourcePoint" />
          </mxGeometry>
        </mxCell>
        <mxCell id="WKY3R2WfsAf2Li8Q5V7j-36" value="End-user" style="shape=umlActor;verticalLabelPosition=bottom;verticalAlign=top;html=1;outlineConnect=0;fontSize=10;align=center;" parent="WKY3R2WfsAf2Li8Q5V7j-1" vertex="1">
          <mxGeometry x="70" y="259" width="30" height="60" as="geometry" />
        </mxCell>
        <mxCell id="WKY3R2WfsAf2Li8Q5V7j-37" value="&lt;b style=&quot;font-size: 9px&quot;&gt;&lt;font style=&quot;font-size: 9px&quot;&gt;MEAN, MERN, MEVN&lt;br&gt;Front-end and Back-end Framework&lt;br&gt;&lt;/font&gt;&lt;/b&gt;" style="text;html=1;strokeColor=#d6b656;fillColor=#fff2cc;align=center;verticalAlign=middle;whiteSpace=wrap;rounded=0;fontSize=9;fontStyle=2;" parent="WKY3R2WfsAf2Li8Q5V7j-1" vertex="1">
          <mxGeometry x="172" y="488" width="169" height="30" as="geometry" />
        </mxCell>
      </root>
    </mxGraphModel>
  </diagram>
  <diagram id="dghS-n5DWlaMNoxzlUEj" name="Option 1">
    <mxGraphModel dx="868" dy="482" grid="1" gridSize="10" guides="1" tooltips="1" connect="1" arrows="1" fold="1" page="1" pageScale="1" pageWidth="850" pageHeight="1100" math="0" shadow="0">
      <root>
        <mxCell id="EN686SisyviVrp1l4_1H-0" />
        <mxCell id="EN686SisyviVrp1l4_1H-1" parent="EN686SisyviVrp1l4_1H-0" />
        <mxCell id="EN686SisyviVrp1l4_1H-2" value="DynamoDB&lt;br style=&quot;font-size: 10px&quot;&gt;Serverless" style="outlineConnect=0;dashed=0;verticalLabelPosition=bottom;verticalAlign=top;align=center;html=1;shape=mxgraph.aws3.dynamo_db;fillColor=#2E73B8;gradientColor=none;rounded=0;sketch=0;strokeColor=#E07A5F;fontColor=#393C56;fontSize=10;" parent="EN686SisyviVrp1l4_1H-1" vertex="1">
          <mxGeometry x="600" y="384" width="76" height="81" as="geometry" />
        </mxCell>
        <mxCell id="sG1az-TuxcEQGHFf2TwW-10" style="edgeStyle=orthogonalEdgeStyle;rounded=0;orthogonalLoop=1;jettySize=auto;html=1;endArrow=classic;endFill=1;strokeWidth=1;fontSize=10;exitX=0.5;exitY=1;exitDx=0;exitDy=0;" parent="EN686SisyviVrp1l4_1H-1" source="sG1az-TuxcEQGHFf2TwW-1" edge="1">
          <mxGeometry relative="1" as="geometry">
            <mxPoint x="270" y="430" as="targetPoint" />
            <Array as="points">
              <mxPoint x="118" y="430" />
            </Array>
          </mxGeometry>
        </mxCell>
        <mxCell id="sG1az-TuxcEQGHFf2TwW-1" value="Web Browser" style="shape=image;html=1;verticalAlign=top;verticalLabelPosition=bottom;labelBackgroundColor=#ffffff;imageAspect=0;aspect=fixed;image=https://cdn4.iconfinder.com/data/icons/logos-and-brands/512/21_Angular_logo_logos-128.png;fontSize=9;align=center;" parent="EN686SisyviVrp1l4_1H-1" vertex="1">
          <mxGeometry x="80" y="280" width="76" height="76" as="geometry" />
        </mxCell>
        <mxCell id="sG1az-TuxcEQGHFf2TwW-12" style="edgeStyle=orthogonalEdgeStyle;rounded=0;orthogonalLoop=1;jettySize=auto;html=1;entryX=0;entryY=0.5;entryDx=0;entryDy=0;entryPerimeter=0;endArrow=classic;endFill=1;strokeWidth=1;fontSize=10;" parent="EN686SisyviVrp1l4_1H-1" source="sG1az-TuxcEQGHFf2TwW-4" target="sG1az-TuxcEQGHFf2TwW-11" edge="1">
          <mxGeometry relative="1" as="geometry" />
        </mxCell>
        <mxCell id="sG1az-TuxcEQGHFf2TwW-4" value="AWS API &lt;br&gt;Gateway" style="outlineConnect=0;dashed=0;verticalLabelPosition=bottom;verticalAlign=top;align=center;html=1;shape=mxgraph.aws3.api_gateway;fillColor=#D9A741;gradientColor=none;fontSize=9;" parent="EN686SisyviVrp1l4_1H-1" vertex="1">
          <mxGeometry x="280" y="378" width="76.5" height="93" as="geometry" />
        </mxCell>
        <mxCell id="sG1az-TuxcEQGHFf2TwW-8" style="edgeStyle=orthogonalEdgeStyle;rounded=0;orthogonalLoop=1;jettySize=auto;html=1;entryX=0.5;entryY=0;entryDx=0;entryDy=0;endArrow=classic;endFill=1;strokeWidth=1;fontSize=10;" parent="EN686SisyviVrp1l4_1H-1" source="sG1az-TuxcEQGHFf2TwW-5" target="sG1az-TuxcEQGHFf2TwW-1" edge="1">
          <mxGeometry relative="1" as="geometry" />
        </mxCell>
        <mxCell id="sG1az-TuxcEQGHFf2TwW-5" value="AWS S3" style="outlineConnect=0;dashed=0;verticalLabelPosition=bottom;verticalAlign=top;align=center;html=1;shape=mxgraph.aws3.s3;fillColor=#E05243;gradientColor=none;fontSize=9;" parent="EN686SisyviVrp1l4_1H-1" vertex="1">
          <mxGeometry x="440" y="152" width="76.5" height="93" as="geometry" />
        </mxCell>
        <mxCell id="sG1az-TuxcEQGHFf2TwW-9" value="HTML, CSS, JavaScript, etc." style="text;html=1;strokeColor=#666666;fillColor=#f5f5f5;align=center;verticalAlign=middle;whiteSpace=wrap;rounded=0;fontSize=10;fontColor=#333333;" parent="EN686SisyviVrp1l4_1H-1" vertex="1">
          <mxGeometry x="170" y="172" width="230" height="20" as="geometry" />
        </mxCell>
        <mxCell id="sG1az-TuxcEQGHFf2TwW-13" style="edgeStyle=orthogonalEdgeStyle;rounded=0;orthogonalLoop=1;jettySize=auto;html=1;exitX=1;exitY=0.5;exitDx=0;exitDy=0;exitPerimeter=0;entryX=0;entryY=0.5;entryDx=0;entryDy=0;entryPerimeter=0;endArrow=classic;endFill=1;strokeWidth=1;fontSize=10;" parent="EN686SisyviVrp1l4_1H-1" source="sG1az-TuxcEQGHFf2TwW-11" target="EN686SisyviVrp1l4_1H-2" edge="1">
          <mxGeometry relative="1" as="geometry" />
        </mxCell>
        <mxCell id="sG1az-TuxcEQGHFf2TwW-11" value="AWS Lambda&lt;br&gt;Serverless" style="outlineConnect=0;dashed=0;verticalLabelPosition=bottom;verticalAlign=top;align=center;html=1;shape=mxgraph.aws3.lambda;fillColor=#F58534;gradientColor=none;fontSize=10;" parent="EN686SisyviVrp1l4_1H-1" vertex="1">
          <mxGeometry x="440" y="378" width="76.5" height="93" as="geometry" />
        </mxCell>
        <mxCell id="sG1az-TuxcEQGHFf2TwW-14" value="Dynamic API Calls&lt;br&gt;Over HTTP" style="text;html=1;strokeColor=#666666;fillColor=#f5f5f5;align=center;verticalAlign=middle;whiteSpace=wrap;rounded=0;fontSize=10;fontColor=#333333;" parent="EN686SisyviVrp1l4_1H-1" vertex="1">
          <mxGeometry x="120" y="438" width="120" height="40" as="geometry" />
        </mxCell>
      </root>
    </mxGraphModel>
  </diagram>
  <diagram name="SPA" id="bxmaHJShx13XXnc8q185">
    <mxGraphModel dx="868" dy="482" grid="1" gridSize="10" guides="1" tooltips="1" connect="1" arrows="1" fold="1" page="1" pageScale="1" pageWidth="850" pageHeight="1100" math="0" shadow="0">
      <root>
        <mxCell id="LdJ4H7tqPmYOzZfuEYy7-0" />
        <mxCell id="LdJ4H7tqPmYOzZfuEYy7-1" parent="LdJ4H7tqPmYOzZfuEYy7-0" />
        <mxCell id="V_9Qe_JwBgjpZdSk1v6R-7" value="Single Page Application" style="rounded=0;whiteSpace=wrap;html=1;fontSize=10;align=center;verticalAlign=top;fillColor=#f5f5f5;strokeColor=#666666;fontColor=#333333;fontStyle=1" parent="LdJ4H7tqPmYOzZfuEYy7-1" vertex="1">
          <mxGeometry x="40" y="40" width="340" height="340" as="geometry" />
        </mxCell>
        <mxCell id="V_9Qe_JwBgjpZdSk1v6R-0" value="Search" style="rounded=1;whiteSpace=wrap;html=1;fontSize=10;align=center;arcSize=10;strokeWidth=2;strokeColor=#FF0000;" parent="LdJ4H7tqPmYOzZfuEYy7-1" vertex="1">
          <mxGeometry x="50" y="130" width="320" height="47" as="geometry" />
        </mxCell>
        <mxCell id="V_9Qe_JwBgjpZdSk1v6R-1" value="Left Nav" style="rounded=1;whiteSpace=wrap;html=1;fontSize=10;align=center;arcSize=7;strokeWidth=2;strokeColor=#FF0000;" parent="LdJ4H7tqPmYOzZfuEYy7-1" vertex="1">
          <mxGeometry x="50" y="180" width="120" height="140" as="geometry" />
        </mxCell>
        <mxCell id="V_9Qe_JwBgjpZdSk1v6R-3" value="Banner" style="rounded=1;whiteSpace=wrap;html=1;fontSize=10;align=center;arcSize=10;strokeColor=#FF0000;strokeWidth=2;" parent="LdJ4H7tqPmYOzZfuEYy7-1" vertex="1">
          <mxGeometry x="50" y="80" width="320" height="47" as="geometry" />
        </mxCell>
        <mxCell id="V_9Qe_JwBgjpZdSk1v6R-5" value="Body" style="rounded=1;whiteSpace=wrap;html=1;fontSize=10;align=center;arcSize=7;strokeWidth=2;strokeColor=#FF0000;" parent="LdJ4H7tqPmYOzZfuEYy7-1" vertex="1">
          <mxGeometry x="174" y="180" width="196" height="140" as="geometry" />
        </mxCell>
        <mxCell id="V_9Qe_JwBgjpZdSk1v6R-6" value="Page Footer" style="rounded=1;whiteSpace=wrap;html=1;fontSize=10;align=center;arcSize=10;strokeWidth=2;strokeColor=#FF0000;" parent="LdJ4H7tqPmYOzZfuEYy7-1" vertex="1">
          <mxGeometry x="50" y="323" width="320" height="47" as="geometry" />
        </mxCell>
        <mxCell id="V_9Qe_JwBgjpZdSk1v6R-10" style="edgeStyle=orthogonalEdgeStyle;rounded=0;orthogonalLoop=1;jettySize=auto;html=1;entryX=1;entryY=0.5;entryDx=0;entryDy=0;endArrow=classic;endFill=1;strokeWidth=1;fontSize=10;" parent="LdJ4H7tqPmYOzZfuEYy7-1" source="V_9Qe_JwBgjpZdSk1v6R-8" target="V_9Qe_JwBgjpZdSk1v6R-3" edge="1">
          <mxGeometry relative="1" as="geometry" />
        </mxCell>
        <mxCell id="V_9Qe_JwBgjpZdSk1v6R-8" value="Servvice" style="rounded=1;whiteSpace=wrap;html=1;strokeWidth=2;fontSize=10;align=center;" parent="LdJ4H7tqPmYOzZfuEYy7-1" vertex="1">
          <mxGeometry x="506" y="83" width="120" height="40" as="geometry" />
        </mxCell>
        <mxCell id="V_9Qe_JwBgjpZdSk1v6R-12" style="edgeStyle=orthogonalEdgeStyle;rounded=0;orthogonalLoop=1;jettySize=auto;html=1;endArrow=classic;endFill=1;strokeWidth=1;fontSize=10;" parent="LdJ4H7tqPmYOzZfuEYy7-1" source="V_9Qe_JwBgjpZdSk1v6R-11" target="V_9Qe_JwBgjpZdSk1v6R-0" edge="1">
          <mxGeometry relative="1" as="geometry" />
        </mxCell>
        <mxCell id="V_9Qe_JwBgjpZdSk1v6R-11" value="Servvice" style="rounded=1;whiteSpace=wrap;html=1;strokeWidth=2;fontSize=10;align=center;" parent="LdJ4H7tqPmYOzZfuEYy7-1" vertex="1">
          <mxGeometry x="506" y="133" width="120" height="40" as="geometry" />
        </mxCell>
        <mxCell id="V_9Qe_JwBgjpZdSk1v6R-14" style="edgeStyle=orthogonalEdgeStyle;rounded=0;orthogonalLoop=1;jettySize=auto;html=1;entryX=1;entryY=0.25;entryDx=0;entryDy=0;endArrow=classic;endFill=1;strokeWidth=1;fontSize=10;" parent="LdJ4H7tqPmYOzZfuEYy7-1" source="V_9Qe_JwBgjpZdSk1v6R-13" target="V_9Qe_JwBgjpZdSk1v6R-5" edge="1">
          <mxGeometry relative="1" as="geometry" />
        </mxCell>
        <mxCell id="V_9Qe_JwBgjpZdSk1v6R-13" value="Servvice" style="rounded=1;whiteSpace=wrap;html=1;strokeWidth=2;fontSize=10;align=center;" parent="LdJ4H7tqPmYOzZfuEYy7-1" vertex="1">
          <mxGeometry x="506" y="195" width="120" height="39" as="geometry" />
        </mxCell>
        <mxCell id="V_9Qe_JwBgjpZdSk1v6R-16" style="edgeStyle=orthogonalEdgeStyle;rounded=0;orthogonalLoop=1;jettySize=auto;html=1;entryX=1;entryY=0.75;entryDx=0;entryDy=0;endArrow=classic;endFill=1;strokeWidth=1;fontSize=10;" parent="LdJ4H7tqPmYOzZfuEYy7-1" source="V_9Qe_JwBgjpZdSk1v6R-15" target="V_9Qe_JwBgjpZdSk1v6R-1" edge="1">
          <mxGeometry relative="1" as="geometry" />
        </mxCell>
        <mxCell id="V_9Qe_JwBgjpZdSk1v6R-15" value="Servvice" style="rounded=1;whiteSpace=wrap;html=1;strokeWidth=2;fontSize=10;align=center;" parent="LdJ4H7tqPmYOzZfuEYy7-1" vertex="1">
          <mxGeometry x="506" y="265" width="120" height="39" as="geometry" />
        </mxCell>
        <mxCell id="V_9Qe_JwBgjpZdSk1v6R-18" style="edgeStyle=orthogonalEdgeStyle;rounded=0;orthogonalLoop=1;jettySize=auto;html=1;endArrow=classic;endFill=1;strokeWidth=1;fontSize=10;" parent="LdJ4H7tqPmYOzZfuEYy7-1" source="V_9Qe_JwBgjpZdSk1v6R-17" target="V_9Qe_JwBgjpZdSk1v6R-6" edge="1">
          <mxGeometry relative="1" as="geometry" />
        </mxCell>
        <mxCell id="V_9Qe_JwBgjpZdSk1v6R-17" value="Servvice" style="rounded=1;whiteSpace=wrap;html=1;strokeWidth=2;fontSize=10;align=center;" parent="LdJ4H7tqPmYOzZfuEYy7-1" vertex="1">
          <mxGeometry x="506" y="328" width="120" height="37" as="geometry" />
        </mxCell>
      </root>
    </mxGraphModel>
  </diagram>
  <diagram id="Kx_zR1apNErKbNzqqDVa" name="Bare Metal Vs">
    <mxGraphModel dx="868" dy="482" grid="1" gridSize="10" guides="1" tooltips="1" connect="1" arrows="1" fold="1" page="1" pageScale="1" pageWidth="850" pageHeight="1100" math="0" shadow="0">
      <root>
        <mxCell id="bJx0C1SLCcW5_VB8IMt9-0" />
        <mxCell id="bJx0C1SLCcW5_VB8IMt9-1" parent="bJx0C1SLCcW5_VB8IMt9-0" />
        <mxCell id="bJx0C1SLCcW5_VB8IMt9-3" value="Bare Metal, VMs, Containers, Serverless" style="text;html=1;strokeColor=none;fillColor=none;align=center;verticalAlign=middle;whiteSpace=wrap;rounded=0;sketch=0;fontSize=12;fontStyle=1" parent="bJx0C1SLCcW5_VB8IMt9-1" vertex="1">
          <mxGeometry x="30" y="30" width="260" height="20" as="geometry" />
        </mxCell>
        <mxCell id="bJx0C1SLCcW5_VB8IMt9-21" value="" style="group;fillColor=#cdeb8b;strokeColor=#36393d;" parent="bJx0C1SLCcW5_VB8IMt9-1" vertex="1" connectable="0">
          <mxGeometry x="281" y="120" width="266" height="290" as="geometry" />
        </mxCell>
        <mxCell id="bJx0C1SLCcW5_VB8IMt9-20" value="&lt;b style=&quot;font-size: 12px&quot;&gt;Baremetal Server&lt;/b&gt;" style="rounded=1;whiteSpace=wrap;html=1;sketch=0;fontSize=12;align=center;arcSize=2;verticalAlign=top;" parent="bJx0C1SLCcW5_VB8IMt9-21" vertex="1">
          <mxGeometry width="266" height="290" as="geometry" />
        </mxCell>
        <mxCell id="bJx0C1SLCcW5_VB8IMt9-19" value="VM 3" style="rounded=1;whiteSpace=wrap;html=1;sketch=0;fontSize=10;align=center;verticalAlign=top;fontStyle=1;arcSize=7;fillColor=#f8cecc;strokeColor=#b85450;" parent="bJx0C1SLCcW5_VB8IMt9-21" vertex="1">
          <mxGeometry x="176" y="30" width="80" height="150" as="geometry" />
        </mxCell>
        <mxCell id="bJx0C1SLCcW5_VB8IMt9-18" value="VM 2" style="rounded=1;whiteSpace=wrap;html=1;sketch=0;fontSize=10;align=center;verticalAlign=top;fontStyle=1;arcSize=7;fillColor=#fff2cc;strokeColor=#d6b656;" parent="bJx0C1SLCcW5_VB8IMt9-21" vertex="1">
          <mxGeometry x="92" y="30" width="80" height="150" as="geometry" />
        </mxCell>
        <mxCell id="bJx0C1SLCcW5_VB8IMt9-17" value="VM 1" style="rounded=1;whiteSpace=wrap;html=1;sketch=0;fontSize=10;align=center;verticalAlign=top;fontStyle=1;arcSize=7;fillColor=#d5e8d4;strokeColor=#82b366;" parent="bJx0C1SLCcW5_VB8IMt9-21" vertex="1">
          <mxGeometry x="9" y="30" width="80" height="150" as="geometry" />
        </mxCell>
        <mxCell id="bJx0C1SLCcW5_VB8IMt9-5" value="Infrastructure" style="rounded=1;whiteSpace=wrap;html=1;sketch=0;fontSize=12;align=center;" parent="bJx0C1SLCcW5_VB8IMt9-21" vertex="1">
          <mxGeometry x="8" y="219" width="248" height="61" as="geometry" />
        </mxCell>
        <mxCell id="bJx0C1SLCcW5_VB8IMt9-7" value="Hypervisor" style="rounded=1;whiteSpace=wrap;html=1;sketch=0;fontSize=12;align=center;" parent="bJx0C1SLCcW5_VB8IMt9-21" vertex="1">
          <mxGeometry x="8" y="185" width="248" height="30" as="geometry" />
        </mxCell>
        <mxCell id="bJx0C1SLCcW5_VB8IMt9-8" value="Guest OS" style="rounded=0;whiteSpace=wrap;html=1;sketch=0;fontSize=12;align=center;fillColor=#d5e8d4;strokeColor=#82b366;" parent="bJx0C1SLCcW5_VB8IMt9-21" vertex="1">
          <mxGeometry x="14" y="123" width="70" height="47" as="geometry" />
        </mxCell>
        <mxCell id="bJx0C1SLCcW5_VB8IMt9-9" value="Bins/Libs" style="rounded=0;whiteSpace=wrap;html=1;sketch=0;fontSize=12;align=center;fillColor=#d5e8d4;strokeColor=#82b366;" parent="bJx0C1SLCcW5_VB8IMt9-21" vertex="1">
          <mxGeometry x="14" y="90" width="70" height="30" as="geometry" />
        </mxCell>
        <mxCell id="bJx0C1SLCcW5_VB8IMt9-10" value="App 1" style="rounded=0;whiteSpace=wrap;html=1;sketch=0;fontSize=12;align=center;fillColor=#d5e8d4;strokeColor=#82b366;" parent="bJx0C1SLCcW5_VB8IMt9-21" vertex="1">
          <mxGeometry x="14" y="57" width="70" height="30" as="geometry" />
        </mxCell>
        <mxCell id="bJx0C1SLCcW5_VB8IMt9-11" value="Guest OS" style="rounded=0;whiteSpace=wrap;html=1;sketch=0;fontSize=12;align=center;fillColor=#fff2cc;strokeColor=#d6b656;" parent="bJx0C1SLCcW5_VB8IMt9-21" vertex="1">
          <mxGeometry x="97" y="123" width="70" height="47" as="geometry" />
        </mxCell>
        <mxCell id="bJx0C1SLCcW5_VB8IMt9-12" value="Bins/Libs" style="rounded=0;whiteSpace=wrap;html=1;sketch=0;fontSize=12;align=center;fillColor=#fff2cc;strokeColor=#d6b656;" parent="bJx0C1SLCcW5_VB8IMt9-21" vertex="1">
          <mxGeometry x="97" y="90" width="70" height="30" as="geometry" />
        </mxCell>
        <mxCell id="bJx0C1SLCcW5_VB8IMt9-13" value="App 2" style="rounded=0;whiteSpace=wrap;html=1;sketch=0;fontSize=12;align=center;fillColor=#fff2cc;strokeColor=#d6b656;" parent="bJx0C1SLCcW5_VB8IMt9-21" vertex="1">
          <mxGeometry x="97" y="57" width="70" height="30" as="geometry" />
        </mxCell>
        <mxCell id="bJx0C1SLCcW5_VB8IMt9-14" value="Guest OS" style="rounded=0;whiteSpace=wrap;html=1;sketch=0;fontSize=12;align=center;fillColor=#f8cecc;strokeColor=#b85450;" parent="bJx0C1SLCcW5_VB8IMt9-21" vertex="1">
          <mxGeometry x="181" y="123" width="70" height="47" as="geometry" />
        </mxCell>
        <mxCell id="bJx0C1SLCcW5_VB8IMt9-15" value="Bins/Libs" style="rounded=0;whiteSpace=wrap;html=1;sketch=0;fontSize=12;align=center;fillColor=#f8cecc;strokeColor=#b85450;" parent="bJx0C1SLCcW5_VB8IMt9-21" vertex="1">
          <mxGeometry x="181" y="90" width="70" height="30" as="geometry" />
        </mxCell>
        <mxCell id="bJx0C1SLCcW5_VB8IMt9-16" value="App 3" style="rounded=0;whiteSpace=wrap;html=1;sketch=0;fontSize=12;align=center;fillColor=#f8cecc;strokeColor=#b85450;" parent="bJx0C1SLCcW5_VB8IMt9-21" vertex="1">
          <mxGeometry x="181" y="57" width="70" height="30" as="geometry" />
        </mxCell>
        <mxCell id="bJx0C1SLCcW5_VB8IMt9-25" value="&lt;b style=&quot;font-size: 12px&quot;&gt;Baremetal Server&lt;/b&gt;" style="rounded=1;whiteSpace=wrap;html=1;sketch=0;fontSize=12;align=center;arcSize=2;verticalAlign=top;" parent="bJx0C1SLCcW5_VB8IMt9-1" vertex="1">
          <mxGeometry x="10" y="120" width="260" height="290" as="geometry" />
        </mxCell>
        <mxCell id="bJx0C1SLCcW5_VB8IMt9-29" value="Infrastructure" style="rounded=1;whiteSpace=wrap;html=1;sketch=0;fontSize=12;align=center;" parent="bJx0C1SLCcW5_VB8IMt9-1" vertex="1">
          <mxGeometry x="18" y="339" width="242" height="61" as="geometry" />
        </mxCell>
        <mxCell id="bJx0C1SLCcW5_VB8IMt9-30" value="Hypervisor" style="rounded=1;whiteSpace=wrap;html=1;sketch=0;fontSize=12;align=center;" parent="bJx0C1SLCcW5_VB8IMt9-1" vertex="1">
          <mxGeometry x="18" y="305" width="242" height="30" as="geometry" />
        </mxCell>
        <mxCell id="bJx0C1SLCcW5_VB8IMt9-37" value="Guest OS" style="rounded=1;whiteSpace=wrap;html=1;sketch=0;fontSize=12;align=center;" parent="bJx0C1SLCcW5_VB8IMt9-1" vertex="1">
          <mxGeometry x="20" y="243" width="240" height="47" as="geometry" />
        </mxCell>
        <mxCell id="bJx0C1SLCcW5_VB8IMt9-38" value="Bins/Libs" style="rounded=1;whiteSpace=wrap;html=1;sketch=0;fontSize=12;align=center;" parent="bJx0C1SLCcW5_VB8IMt9-1" vertex="1">
          <mxGeometry x="20" y="210" width="240" height="30" as="geometry" />
        </mxCell>
        <mxCell id="bJx0C1SLCcW5_VB8IMt9-39" value="Apps" style="rounded=1;whiteSpace=wrap;html=1;sketch=0;fontSize=12;align=center;" parent="bJx0C1SLCcW5_VB8IMt9-1" vertex="1">
          <mxGeometry x="20" y="177" width="240" height="30" as="geometry" />
        </mxCell>
        <mxCell id="bJx0C1SLCcW5_VB8IMt9-40" value="" style="group;fillColor=#cdeb8b;strokeColor=#36393d;" parent="bJx0C1SLCcW5_VB8IMt9-1" vertex="1" connectable="0">
          <mxGeometry x="559" y="120" width="266" height="290" as="geometry" />
        </mxCell>
        <mxCell id="bJx0C1SLCcW5_VB8IMt9-41" value="&lt;b style=&quot;font-size: 12px&quot;&gt;Baremetal Server&lt;/b&gt;" style="rounded=1;whiteSpace=wrap;html=1;sketch=0;fontSize=12;align=center;arcSize=2;verticalAlign=top;" parent="bJx0C1SLCcW5_VB8IMt9-40" vertex="1">
          <mxGeometry width="266" height="290.00000000000006" as="geometry" />
        </mxCell>
        <mxCell id="bJx0C1SLCcW5_VB8IMt9-42" value="Container 3" style="rounded=1;whiteSpace=wrap;html=1;sketch=0;fontSize=10;align=center;verticalAlign=top;fontStyle=1;arcSize=7;fillColor=#f8cecc;strokeColor=#b85450;" parent="bJx0C1SLCcW5_VB8IMt9-40" vertex="1">
          <mxGeometry x="176" y="32.22222222222223" width="80" height="107.40740740740742" as="geometry" />
        </mxCell>
        <mxCell id="bJx0C1SLCcW5_VB8IMt9-43" value="Container 2" style="rounded=1;whiteSpace=wrap;html=1;sketch=0;fontSize=10;align=center;verticalAlign=top;fontStyle=1;arcSize=7;fillColor=#fff2cc;strokeColor=#d6b656;" parent="bJx0C1SLCcW5_VB8IMt9-40" vertex="1">
          <mxGeometry x="92" y="32.22222222222223" width="80" height="107.40740740740742" as="geometry" />
        </mxCell>
        <mxCell id="bJx0C1SLCcW5_VB8IMt9-44" value="Container 1" style="rounded=1;whiteSpace=wrap;html=1;sketch=0;fontSize=10;align=center;verticalAlign=top;fontStyle=1;arcSize=7;fillColor=#d5e8d4;strokeColor=#82b366;" parent="bJx0C1SLCcW5_VB8IMt9-40" vertex="1">
          <mxGeometry x="9" y="32.22222222222223" width="80" height="107.40740740740742" as="geometry" />
        </mxCell>
        <mxCell id="bJx0C1SLCcW5_VB8IMt9-45" value="Infrastructure" style="rounded=1;whiteSpace=wrap;html=1;sketch=0;fontSize=12;align=center;" parent="bJx0C1SLCcW5_VB8IMt9-40" vertex="1">
          <mxGeometry x="8" y="235.22222222222226" width="248" height="42.96296296296297" as="geometry" />
        </mxCell>
        <mxCell id="bJx0C1SLCcW5_VB8IMt9-46" value="Operating System" style="rounded=1;whiteSpace=wrap;html=1;sketch=0;fontSize=12;align=center;" parent="bJx0C1SLCcW5_VB8IMt9-40" vertex="1">
          <mxGeometry x="8" y="198.70370370370372" width="248" height="32.22222222222223" as="geometry" />
        </mxCell>
        <mxCell id="bJx0C1SLCcW5_VB8IMt9-48" value="Bins/Libs" style="rounded=0;whiteSpace=wrap;html=1;sketch=0;fontSize=12;align=center;fillColor=#d5e8d4;strokeColor=#82b366;" parent="bJx0C1SLCcW5_VB8IMt9-40" vertex="1">
          <mxGeometry x="14" y="96.66666666666667" width="70" height="32.22222222222223" as="geometry" />
        </mxCell>
        <mxCell id="bJx0C1SLCcW5_VB8IMt9-49" value="App 1" style="rounded=0;whiteSpace=wrap;html=1;sketch=0;fontSize=12;align=center;fillColor=#d5e8d4;strokeColor=#82b366;" parent="bJx0C1SLCcW5_VB8IMt9-40" vertex="1">
          <mxGeometry x="14" y="61.22222222222223" width="70" height="32.22222222222223" as="geometry" />
        </mxCell>
        <mxCell id="bJx0C1SLCcW5_VB8IMt9-51" value="Bins/Libs" style="rounded=0;whiteSpace=wrap;html=1;sketch=0;fontSize=12;align=center;fillColor=#fff2cc;strokeColor=#d6b656;" parent="bJx0C1SLCcW5_VB8IMt9-40" vertex="1">
          <mxGeometry x="97" y="96.66666666666667" width="70" height="32.22222222222223" as="geometry" />
        </mxCell>
        <mxCell id="bJx0C1SLCcW5_VB8IMt9-52" value="App 2" style="rounded=0;whiteSpace=wrap;html=1;sketch=0;fontSize=12;align=center;fillColor=#fff2cc;strokeColor=#d6b656;" parent="bJx0C1SLCcW5_VB8IMt9-40" vertex="1">
          <mxGeometry x="97" y="61.22222222222223" width="70" height="32.22222222222223" as="geometry" />
        </mxCell>
        <mxCell id="bJx0C1SLCcW5_VB8IMt9-54" value="Bins/Libs" style="rounded=0;whiteSpace=wrap;html=1;sketch=0;fontSize=12;align=center;fillColor=#f8cecc;strokeColor=#b85450;" parent="bJx0C1SLCcW5_VB8IMt9-40" vertex="1">
          <mxGeometry x="181" y="96.66666666666667" width="70" height="32.22222222222223" as="geometry" />
        </mxCell>
        <mxCell id="bJx0C1SLCcW5_VB8IMt9-55" value="App 3" style="rounded=0;whiteSpace=wrap;html=1;sketch=0;fontSize=12;align=center;fillColor=#f8cecc;strokeColor=#b85450;" parent="bJx0C1SLCcW5_VB8IMt9-40" vertex="1">
          <mxGeometry x="181" y="61.22222222222223" width="70" height="32.22222222222223" as="geometry" />
        </mxCell>
        <mxCell id="bJx0C1SLCcW5_VB8IMt9-56" value="Container Engine" style="rounded=1;whiteSpace=wrap;html=1;sketch=0;fontSize=12;align=center;fillColor=#dae8fc;strokeColor=#6c8ebf;" parent="bJx0C1SLCcW5_VB8IMt9-40" vertex="1">
          <mxGeometry x="9" y="148.22222222222223" width="248" height="42.96296296296297" as="geometry" />
        </mxCell>
        <mxCell id="bJx0C1SLCcW5_VB8IMt9-59" value="Dedicated Server" style="text;html=1;strokeColor=#666666;fillColor=#f5f5f5;align=center;verticalAlign=middle;whiteSpace=wrap;rounded=0;sketch=0;fontSize=12;fontStyle=1;fontColor=#333333;" parent="bJx0C1SLCcW5_VB8IMt9-1" vertex="1">
          <mxGeometry x="10" y="90" width="260" height="20" as="geometry" />
        </mxCell>
        <mxCell id="bJx0C1SLCcW5_VB8IMt9-60" value="Virtual Machine (isolation)" style="text;html=1;strokeColor=#666666;fillColor=#f5f5f5;align=center;verticalAlign=middle;whiteSpace=wrap;rounded=0;sketch=0;fontSize=12;fontStyle=1;fontColor=#333333;" parent="bJx0C1SLCcW5_VB8IMt9-1" vertex="1">
          <mxGeometry x="280" y="90" width="266" height="20" as="geometry" />
        </mxCell>
        <mxCell id="bJx0C1SLCcW5_VB8IMt9-61" value="Containers (isolation)" style="text;html=1;strokeColor=#666666;fillColor=#f5f5f5;align=center;verticalAlign=middle;whiteSpace=wrap;rounded=0;sketch=0;fontSize=12;fontStyle=1;fontColor=#333333;" parent="bJx0C1SLCcW5_VB8IMt9-1" vertex="1">
          <mxGeometry x="559" y="90" width="266" height="20" as="geometry" />
        </mxCell>
        <mxCell id="bJx0C1SLCcW5_VB8IMt9-62" value="&lt;b style=&quot;font-size: 12px&quot;&gt;Baremetal Server&lt;/b&gt;" style="rounded=1;whiteSpace=wrap;html=1;sketch=0;fontSize=12;align=center;arcSize=2;verticalAlign=top;fillColor=#f5f5f5;strokeColor=#666666;fontColor=#333333;" parent="bJx0C1SLCcW5_VB8IMt9-1" vertex="1">
          <mxGeometry x="281" y="470" width="260" height="110" as="geometry" />
        </mxCell>
        <mxCell id="bJx0C1SLCcW5_VB8IMt9-68" value="Serverless" style="text;html=1;strokeColor=#666666;fillColor=#f5f5f5;align=center;verticalAlign=middle;whiteSpace=wrap;rounded=0;sketch=0;fontSize=12;fontStyle=1;fontColor=#333333;" parent="bJx0C1SLCcW5_VB8IMt9-1" vertex="1">
          <mxGeometry x="281" y="440" width="260" height="20" as="geometry" />
        </mxCell>
        <mxCell id="bJx0C1SLCcW5_VB8IMt9-69" value="Cloud Provider (GCP, AWS, Azure) provide and manage an environment where developers don&#39;t provision, manage, or maintain servers.&amp;nbsp; The developer focuses on application code and the cloud provider the platform.&amp;nbsp;" style="rounded=1;whiteSpace=wrap;html=1;sketch=0;fontSize=10;align=left;verticalAlign=top;fillColor=#fad9d5;strokeColor=#ae4132;" parent="bJx0C1SLCcW5_VB8IMt9-1" vertex="1">
          <mxGeometry x="290" y="492" width="240" height="68" as="geometry" />
        </mxCell>
      </root>
    </mxGraphModel>
  </diagram>
  <diagram id="SYBCbkwvf-UrgvOSQkVQ" name="Service Mesh">
    <mxGraphModel dx="1157" dy="643" grid="1" gridSize="10" guides="1" tooltips="1" connect="1" arrows="1" fold="1" page="1" pageScale="1" pageWidth="850" pageHeight="1100" math="0" shadow="0">
      <root>
        <mxCell id="J1iUcGRt7Y2Le6BU70d3-0" />
        <mxCell id="J1iUcGRt7Y2Le6BU70d3-1" parent="J1iUcGRt7Y2Le6BU70d3-0" />
        <mxCell id="J1iUcGRt7Y2Le6BU70d3-4" value="&lt;span style=&quot;font-size: 12px&quot;&gt;&amp;nbsp;Data Plane&amp;nbsp;&lt;br&gt;&amp;nbsp;East-West Traffic&lt;br&gt;&lt;/span&gt;" style="rounded=1;whiteSpace=wrap;html=1;sketch=0;fontSize=10;align=left;fillColor=#f5f5f5;strokeColor=#666666;fontColor=#333333;fontStyle=1;arcSize=3;" parent="J1iUcGRt7Y2Le6BU70d3-1" vertex="1">
          <mxGeometry x="40" y="230" width="420" height="220" as="geometry" />
        </mxCell>
        <mxCell id="J1iUcGRt7Y2Le6BU70d3-12" value="" style="rounded=1;whiteSpace=wrap;html=1;sketch=0;fontSize=10;align=center;dashed=1;fillColor=#f5f5f5;strokeColor=#666666;fontColor=#333333;" parent="J1iUcGRt7Y2Le6BU70d3-1" vertex="1">
          <mxGeometry x="366" y="250" width="83" height="170" as="geometry" />
        </mxCell>
        <mxCell id="J1iUcGRt7Y2Le6BU70d3-2" value="&lt;font style=&quot;font-size: 12px&quot;&gt;&amp;nbsp;&lt;/font&gt;&lt;font style=&quot;font-size: 14px&quot;&gt;Control Plane&lt;/font&gt;" style="rounded=1;whiteSpace=wrap;html=1;sketch=0;fontSize=10;align=left;fillColor=#f5f5f5;strokeColor=#666666;fontColor=#333333;fontStyle=1;arcSize=7;" parent="J1iUcGRt7Y2Le6BU70d3-1" vertex="1">
          <mxGeometry x="40" y="120" width="420" height="90" as="geometry" />
        </mxCell>
        <mxCell id="EZa_v1htbpbABKEuokWN-2" style="edgeStyle=orthogonalEdgeStyle;rounded=0;sketch=0;orthogonalLoop=1;jettySize=auto;html=1;exitX=0.75;exitY=1;exitDx=0;exitDy=0;entryX=0;entryY=0.25;entryDx=0;entryDy=0;startArrow=none;startFill=0;endArrow=classic;endFill=1;fontSize=10;fillColor=#0050ef;strokeColor=#001DBC;" parent="J1iUcGRt7Y2Le6BU70d3-1" source="J1iUcGRt7Y2Le6BU70d3-3" target="J1iUcGRt7Y2Le6BU70d3-14" edge="1">
          <mxGeometry relative="1" as="geometry">
            <Array as="points">
              <mxPoint x="373" y="220" />
              <mxPoint x="355" y="220" />
              <mxPoint x="355" y="373" />
            </Array>
          </mxGeometry>
        </mxCell>
        <mxCell id="J1iUcGRt7Y2Le6BU70d3-3" value="&lt;font style=&quot;font-size: 12px&quot;&gt;Service Mesh Control Plane&amp;nbsp;&lt;/font&gt;" style="rounded=1;whiteSpace=wrap;html=1;sketch=0;fontSize=10;align=center;fillColor=#cce5ff;strokeColor=#36393d;" parent="J1iUcGRt7Y2Le6BU70d3-1" vertex="1">
          <mxGeometry x="140" y="135" width="310" height="60" as="geometry" />
        </mxCell>
        <mxCell id="J1iUcGRt7Y2Le6BU70d3-5" value="" style="rounded=1;whiteSpace=wrap;html=1;sketch=0;fontSize=10;align=center;dashed=1;fillColor=#f5f5f5;strokeColor=#666666;fontColor=#333333;" parent="J1iUcGRt7Y2Le6BU70d3-1" vertex="1">
          <mxGeometry x="161" y="250" width="81" height="170" as="geometry" />
        </mxCell>
        <mxCell id="J1iUcGRt7Y2Le6BU70d3-7" value="Instance A" style="rounded=1;whiteSpace=wrap;html=1;dashed=1;sketch=0;fontSize=10;align=center;fillColor=#cce5ff;strokeColor=#36393d;" parent="J1iUcGRt7Y2Le6BU70d3-1" vertex="1">
          <mxGeometry x="169" y="260" width="65" height="50" as="geometry" />
        </mxCell>
        <mxCell id="J1iUcGRt7Y2Le6BU70d3-24" style="edgeStyle=orthogonalEdgeStyle;curved=1;rounded=0;sketch=0;orthogonalLoop=1;jettySize=auto;html=1;exitX=0.75;exitY=1;exitDx=0;exitDy=0;entryX=0.25;entryY=1;entryDx=0;entryDy=0;startArrow=classic;startFill=1;endArrow=classic;endFill=1;fontSize=10;" parent="J1iUcGRt7Y2Le6BU70d3-1" source="J1iUcGRt7Y2Le6BU70d3-8" target="J1iUcGRt7Y2Le6BU70d3-14" edge="1">
          <mxGeometry relative="1" as="geometry">
            <Array as="points">
              <mxPoint x="218" y="440" />
              <mxPoint x="391" y="440" />
            </Array>
          </mxGeometry>
        </mxCell>
        <mxCell id="J1iUcGRt7Y2Le6BU70d3-28" style="edgeStyle=orthogonalEdgeStyle;rounded=0;sketch=0;orthogonalLoop=1;jettySize=auto;html=1;exitX=0.5;exitY=1;exitDx=0;exitDy=0;entryX=0.5;entryY=0;entryDx=0;entryDy=0;startArrow=none;startFill=0;endArrow=none;endFill=0;fontSize=10;" parent="J1iUcGRt7Y2Le6BU70d3-1" source="J1iUcGRt7Y2Le6BU70d3-8" target="J1iUcGRt7Y2Le6BU70d3-25" edge="1">
          <mxGeometry relative="1" as="geometry">
            <Array as="points">
              <mxPoint x="202" y="460" />
              <mxPoint x="256" y="460" />
            </Array>
          </mxGeometry>
        </mxCell>
        <mxCell id="J1iUcGRt7Y2Le6BU70d3-30" style="edgeStyle=orthogonalEdgeStyle;rounded=0;sketch=0;orthogonalLoop=1;jettySize=auto;html=1;entryX=0.5;entryY=0;entryDx=0;entryDy=0;startArrow=none;startFill=0;endArrow=none;endFill=0;fontSize=10;exitX=0.5;exitY=1;exitDx=0;exitDy=0;fillColor=#ffe6cc;strokeColor=#d79b00;" parent="J1iUcGRt7Y2Le6BU70d3-1" source="J1iUcGRt7Y2Le6BU70d3-8" target="J1iUcGRt7Y2Le6BU70d3-27" edge="1">
          <mxGeometry relative="1" as="geometry">
            <Array as="points">
              <mxPoint x="202" y="460" />
              <mxPoint x="374" y="460" />
            </Array>
          </mxGeometry>
        </mxCell>
        <mxCell id="J1iUcGRt7Y2Le6BU70d3-8" value="Sidecar Proxy" style="rounded=1;whiteSpace=wrap;html=1;dashed=1;sketch=0;fontSize=10;align=center;fillColor=#cce5ff;strokeColor=#36393d;" parent="J1iUcGRt7Y2Le6BU70d3-1" vertex="1">
          <mxGeometry x="169" y="360" width="65" height="50" as="geometry" />
        </mxCell>
        <mxCell id="J1iUcGRt7Y2Le6BU70d3-9" value="" style="rounded=1;whiteSpace=wrap;html=1;sketch=0;fontSize=10;align=center;dashed=1;fillColor=#f5f5f5;strokeColor=#666666;fontColor=#333333;" parent="J1iUcGRt7Y2Le6BU70d3-1" vertex="1">
          <mxGeometry x="262" y="250" width="85" height="170" as="geometry" />
        </mxCell>
        <mxCell id="J1iUcGRt7Y2Le6BU70d3-10" value="Instance B" style="rounded=1;whiteSpace=wrap;html=1;dashed=1;sketch=0;fontSize=10;align=center;fillColor=#cce5ff;strokeColor=#36393d;" parent="J1iUcGRt7Y2Le6BU70d3-1" vertex="1">
          <mxGeometry x="272" y="260" width="65" height="50" as="geometry" />
        </mxCell>
        <mxCell id="J1iUcGRt7Y2Le6BU70d3-21" style="edgeStyle=none;rounded=0;sketch=0;orthogonalLoop=1;jettySize=auto;html=1;endArrow=classic;endFill=1;fontSize=10;startArrow=classic;startFill=1;" parent="J1iUcGRt7Y2Le6BU70d3-1" source="J1iUcGRt7Y2Le6BU70d3-11" target="J1iUcGRt7Y2Le6BU70d3-14" edge="1">
          <mxGeometry relative="1" as="geometry" />
        </mxCell>
        <mxCell id="J1iUcGRt7Y2Le6BU70d3-31" style="edgeStyle=orthogonalEdgeStyle;rounded=0;sketch=0;orthogonalLoop=1;jettySize=auto;html=1;entryX=0.5;entryY=0;entryDx=0;entryDy=0;startArrow=none;startFill=0;endArrow=none;endFill=0;fontSize=10;exitX=0.5;exitY=1;exitDx=0;exitDy=0;fillColor=#ffe6cc;strokeColor=#d79b00;" parent="J1iUcGRt7Y2Le6BU70d3-1" source="J1iUcGRt7Y2Le6BU70d3-11" target="J1iUcGRt7Y2Le6BU70d3-25" edge="1">
          <mxGeometry relative="1" as="geometry">
            <Array as="points">
              <mxPoint x="305" y="460" />
              <mxPoint x="256" y="460" />
            </Array>
          </mxGeometry>
        </mxCell>
        <mxCell id="J1iUcGRt7Y2Le6BU70d3-11" value="Sidecar Proxy" style="rounded=1;whiteSpace=wrap;html=1;dashed=1;sketch=0;fontSize=10;align=center;fillColor=#cce5ff;strokeColor=#36393d;" parent="J1iUcGRt7Y2Le6BU70d3-1" vertex="1">
          <mxGeometry x="272" y="360" width="65" height="50" as="geometry" />
        </mxCell>
        <mxCell id="J1iUcGRt7Y2Le6BU70d3-13" value="Instance C" style="rounded=1;whiteSpace=wrap;html=1;dashed=1;sketch=0;fontSize=10;align=center;fillColor=#cce5ff;strokeColor=#36393d;" parent="J1iUcGRt7Y2Le6BU70d3-1" vertex="1">
          <mxGeometry x="375" y="260" width="65" height="50" as="geometry" />
        </mxCell>
        <mxCell id="J1iUcGRt7Y2Le6BU70d3-32" style="edgeStyle=orthogonalEdgeStyle;rounded=0;sketch=0;orthogonalLoop=1;jettySize=auto;html=1;entryX=0.5;entryY=0;entryDx=0;entryDy=0;startArrow=none;startFill=0;endArrow=none;endFill=0;fontSize=10;fillColor=#ffe6cc;strokeColor=#d79b00;" parent="J1iUcGRt7Y2Le6BU70d3-1" source="J1iUcGRt7Y2Le6BU70d3-14" target="J1iUcGRt7Y2Le6BU70d3-27" edge="1">
          <mxGeometry relative="1" as="geometry">
            <Array as="points">
              <mxPoint x="408" y="460" />
              <mxPoint x="374" y="460" />
            </Array>
          </mxGeometry>
        </mxCell>
        <mxCell id="J1iUcGRt7Y2Le6BU70d3-14" value="Sidecar Proxy" style="rounded=1;whiteSpace=wrap;html=1;dashed=1;sketch=0;fontSize=10;align=center;fillColor=#cce5ff;strokeColor=#36393d;" parent="J1iUcGRt7Y2Le6BU70d3-1" vertex="1">
          <mxGeometry x="375" y="360" width="65" height="50" as="geometry" />
        </mxCell>
        <mxCell id="J1iUcGRt7Y2Le6BU70d3-16" value="" style="endArrow=classic;startArrow=classic;html=1;fontSize=10;" parent="J1iUcGRt7Y2Le6BU70d3-1" edge="1">
          <mxGeometry width="50" height="50" relative="1" as="geometry">
            <mxPoint x="304.5" y="355" as="sourcePoint" />
            <mxPoint x="304.5" y="315" as="targetPoint" />
          </mxGeometry>
        </mxCell>
        <mxCell id="J1iUcGRt7Y2Le6BU70d3-17" value="" style="endArrow=classic;startArrow=classic;html=1;fontSize=10;" parent="J1iUcGRt7Y2Le6BU70d3-1" edge="1">
          <mxGeometry width="50" height="50" relative="1" as="geometry">
            <mxPoint x="207" y="356" as="sourcePoint" />
            <mxPoint x="207" y="316" as="targetPoint" />
          </mxGeometry>
        </mxCell>
        <mxCell id="J1iUcGRt7Y2Le6BU70d3-18" value="" style="endArrow=classic;startArrow=classic;html=1;fontSize=10;" parent="J1iUcGRt7Y2Le6BU70d3-1" edge="1">
          <mxGeometry width="50" height="50" relative="1" as="geometry">
            <mxPoint x="410.5" y="354" as="sourcePoint" />
            <mxPoint x="410.5" y="314" as="targetPoint" />
          </mxGeometry>
        </mxCell>
        <mxCell id="J1iUcGRt7Y2Le6BU70d3-20" value="" style="endArrow=classic;startArrow=classic;html=1;fontSize=10;entryX=0;entryY=0.5;entryDx=0;entryDy=0;exitX=1;exitY=0.5;exitDx=0;exitDy=0;" parent="J1iUcGRt7Y2Le6BU70d3-1" source="J1iUcGRt7Y2Le6BU70d3-8" target="J1iUcGRt7Y2Le6BU70d3-11" edge="1">
          <mxGeometry width="50" height="50" relative="1" as="geometry">
            <mxPoint x="290" y="390" as="sourcePoint" />
            <mxPoint x="290" y="350" as="targetPoint" />
          </mxGeometry>
        </mxCell>
        <mxCell id="J1iUcGRt7Y2Le6BU70d3-25" value="Observe" style="whiteSpace=wrap;html=1;aspect=fixed;rounded=1;sketch=0;fontSize=10;align=center;fillColor=#d5e8d4;strokeColor=#82b366;" parent="J1iUcGRt7Y2Le6BU70d3-1" vertex="1">
          <mxGeometry x="216" y="480" width="80" height="80" as="geometry" />
        </mxCell>
        <mxCell id="J1iUcGRt7Y2Le6BU70d3-27" value="Trace" style="whiteSpace=wrap;html=1;aspect=fixed;rounded=1;sketch=0;fontSize=10;align=center;fillColor=#d5e8d4;strokeColor=#82b366;" parent="J1iUcGRt7Y2Le6BU70d3-1" vertex="1">
          <mxGeometry x="334" y="480" width="80" height="80" as="geometry" />
        </mxCell>
        <mxCell id="EZa_v1htbpbABKEuokWN-0" style="edgeStyle=orthogonalEdgeStyle;rounded=0;sketch=0;orthogonalLoop=1;jettySize=auto;html=1;exitX=0.25;exitY=1;exitDx=0;exitDy=0;entryX=0;entryY=0.25;entryDx=0;entryDy=0;startArrow=none;startFill=0;endArrow=classic;endFill=1;fontSize=10;fillColor=#0050ef;strokeColor=#001DBC;" parent="J1iUcGRt7Y2Le6BU70d3-1" source="J1iUcGRt7Y2Le6BU70d3-3" target="J1iUcGRt7Y2Le6BU70d3-8" edge="1">
          <mxGeometry relative="1" as="geometry">
            <Array as="points">
              <mxPoint x="218" y="220" />
              <mxPoint x="150" y="220" />
              <mxPoint x="150" y="373" />
            </Array>
          </mxGeometry>
        </mxCell>
        <mxCell id="EZa_v1htbpbABKEuokWN-1" style="edgeStyle=orthogonalEdgeStyle;rounded=0;sketch=0;orthogonalLoop=1;jettySize=auto;html=1;exitX=0.5;exitY=1;exitDx=0;exitDy=0;entryX=0;entryY=0.25;entryDx=0;entryDy=0;startArrow=none;startFill=0;endArrow=classic;endFill=1;fontSize=10;fillColor=#0050ef;strokeColor=#001DBC;" parent="J1iUcGRt7Y2Le6BU70d3-1" source="J1iUcGRt7Y2Le6BU70d3-3" target="J1iUcGRt7Y2Le6BU70d3-11" edge="1">
          <mxGeometry relative="1" as="geometry">
            <Array as="points">
              <mxPoint x="295" y="220" />
              <mxPoint x="250" y="220" />
              <mxPoint x="250" y="373" />
            </Array>
          </mxGeometry>
        </mxCell>
        <mxCell id="KtX2TkXqzPcVY2nQoBW4-0" value="&lt;b&gt;Container Orchestration Framework:&amp;nbsp; Kubernetes (K8)&amp;nbsp;&lt;br&gt;&lt;br&gt;Services and Instances (K8 Pods): &lt;/b&gt;An instance is a single running copy of a microservice. Small group of independent containers is called a Pod. Clients access a service which is a set of identical instances or pods.&amp;nbsp; &amp;nbsp;&lt;br&gt;&lt;br&gt;&lt;b&gt;Sidecar Proxy:&lt;/b&gt; runs alongside pod.&amp;nbsp; Purpose is to route or proxy traffic to or from the container is runs alongside of.&amp;nbsp;&amp;nbsp;&lt;br&gt;&lt;br&gt;&lt;b&gt;Service Discovery:&lt;/b&gt; when an instance needs to communicate with another service it needs to find - discover - via basically a DNS lookup.&amp;nbsp;&lt;br&gt;&lt;br&gt;&lt;b&gt;Load Balancing:&lt;/b&gt; provides layer 7 (application layer) load balancing. Provides powerful traffic management, also enables canary, blue/green deployments.&amp;nbsp;&lt;br&gt;&lt;br&gt;&lt;b&gt;Encryption:&lt;/b&gt;&amp;nbsp; can encrypt and decrypt requests and responses.&amp;nbsp; TLS.&lt;br&gt;&lt;br&gt;&lt;b&gt;Authentication and Authorization:&lt;/b&gt;&amp;nbsp; for outside and within the app, sending only validated requests to instances.&lt;br&gt;&lt;br&gt;&lt;b&gt;Circuit Breaker Pattern:&lt;/b&gt;&amp;nbsp; isolates unhealty instances, then gradually brings them back into a healthy instance pool if necessary.&amp;nbsp;" style="text;html=1;strokeColor=none;fillColor=none;align=left;verticalAlign=top;whiteSpace=wrap;rounded=0;sketch=0;fontSize=10;" parent="J1iUcGRt7Y2Le6BU70d3-1" vertex="1">
          <mxGeometry x="480" y="120" width="300" height="440" as="geometry" />
        </mxCell>
        <mxCell id="KtX2TkXqzPcVY2nQoBW4-2" style="edgeStyle=orthogonalEdgeStyle;rounded=0;sketch=0;orthogonalLoop=1;jettySize=auto;html=1;entryX=0.25;entryY=0;entryDx=0;entryDy=0;startArrow=none;startFill=0;endArrow=classic;endFill=1;fontSize=10;" parent="J1iUcGRt7Y2Le6BU70d3-1" source="KtX2TkXqzPcVY2nQoBW4-1" target="J1iUcGRt7Y2Le6BU70d3-3" edge="1">
          <mxGeometry relative="1" as="geometry" />
        </mxCell>
        <mxCell id="KtX2TkXqzPcVY2nQoBW4-1" value="CLI/API&amp;nbsp;" style="whiteSpace=wrap;html=1;aspect=fixed;rounded=1;sketch=0;fontSize=10;align=center;fillColor=#f5f5f5;strokeColor=#666666;gradientColor=#b3b3b3;" parent="J1iUcGRt7Y2Le6BU70d3-1" vertex="1">
          <mxGeometry x="178" y="10" width="80" height="80" as="geometry" />
        </mxCell>
      </root>
    </mxGraphModel>
  </diagram>
  <diagram id="ibPLWf5eqLBhD5_8a5IP" name="Current State">
    <mxGraphModel dx="868" dy="482" grid="1" gridSize="10" guides="1" tooltips="1" connect="1" arrows="1" fold="1" page="1" pageScale="1" pageWidth="850" pageHeight="1100" math="0" shadow="0">
      <root>
        <mxCell id="Y4-wfhUWcPGjIAoOUqBY-0" />
        <mxCell id="Y4-wfhUWcPGjIAoOUqBY-1" parent="Y4-wfhUWcPGjIAoOUqBY-0" />
        <mxCell id="Y4-wfhUWcPGjIAoOUqBY-3" value="" style="endArrow=none;html=1;sketch=1;" parent="Y4-wfhUWcPGjIAoOUqBY-1" edge="1">
          <mxGeometry width="50" height="50" relative="1" as="geometry">
            <mxPoint x="40" y="80" as="sourcePoint" />
            <mxPoint x="800" y="80" as="targetPoint" />
          </mxGeometry>
        </mxCell>
        <mxCell id="Y4-wfhUWcPGjIAoOUqBY-4" value="" style="endArrow=none;html=1;sketch=1;" parent="Y4-wfhUWcPGjIAoOUqBY-1" edge="1">
          <mxGeometry width="50" height="50" relative="1" as="geometry">
            <mxPoint x="240" y="590" as="sourcePoint" />
            <mxPoint x="240" y="40" as="targetPoint" />
          </mxGeometry>
        </mxCell>
        <mxCell id="Y4-wfhUWcPGjIAoOUqBY-5" value="" style="endArrow=none;html=1;sketch=1;" parent="Y4-wfhUWcPGjIAoOUqBY-1" edge="1">
          <mxGeometry width="50" height="50" relative="1" as="geometry">
            <mxPoint x="680" y="590" as="sourcePoint" />
            <mxPoint x="680" y="50" as="targetPoint" />
          </mxGeometry>
        </mxCell>
        <mxCell id="Y4-wfhUWcPGjIAoOUqBY-6" value="Client (front-end)" style="text;html=1;strokeColor=none;fillColor=none;align=center;verticalAlign=middle;whiteSpace=wrap;rounded=0;sketch=1;" parent="Y4-wfhUWcPGjIAoOUqBY-1" vertex="1">
          <mxGeometry x="50" y="50" width="179" height="20" as="geometry" />
        </mxCell>
        <mxCell id="Y4-wfhUWcPGjIAoOUqBY-7" value="web servers (apache, nginx, IIS, etc." style="text;html=1;strokeColor=none;fillColor=none;align=center;verticalAlign=middle;whiteSpace=wrap;rounded=0;sketch=1;" parent="Y4-wfhUWcPGjIAoOUqBY-1" vertex="1">
          <mxGeometry x="250" y="50" width="340" height="20" as="geometry" />
        </mxCell>
        <mxCell id="Y4-wfhUWcPGjIAoOUqBY-8" value="Front-end" style="text;html=1;strokeColor=none;fillColor=none;align=center;verticalAlign=middle;whiteSpace=wrap;rounded=0;sketch=1;" parent="Y4-wfhUWcPGjIAoOUqBY-1" vertex="1">
          <mxGeometry x="610" y="50" width="179" height="20" as="geometry" />
        </mxCell>
        <mxCell id="Y4-wfhUWcPGjIAoOUqBY-9" value="" style="endArrow=none;html=1;sketch=1;" parent="Y4-wfhUWcPGjIAoOUqBY-1" edge="1">
          <mxGeometry width="50" height="50" relative="1" as="geometry">
            <mxPoint x="40" y="400" as="sourcePoint" />
            <mxPoint x="800" y="400" as="targetPoint" />
          </mxGeometry>
        </mxCell>
        <mxCell id="Y4-wfhUWcPGjIAoOUqBY-10" value="MSSQL or Oracle" style="shape=cylinder3;whiteSpace=wrap;html=1;boundedLbl=1;backgroundOutline=1;size=15;sketch=1;" parent="Y4-wfhUWcPGjIAoOUqBY-1" vertex="1">
          <mxGeometry x="729" y="460" width="60" height="80" as="geometry" />
        </mxCell>
        <mxCell id="Y4-wfhUWcPGjIAoOUqBY-11" value="Browser" style="rounded=1;whiteSpace=wrap;html=1;sketch=1;" parent="Y4-wfhUWcPGjIAoOUqBY-1" vertex="1">
          <mxGeometry x="79.5" y="152" width="120" height="60" as="geometry" />
        </mxCell>
        <mxCell id="Y4-wfhUWcPGjIAoOUqBY-12" value="Mobile Device" style="rounded=1;whiteSpace=wrap;html=1;sketch=1;" parent="Y4-wfhUWcPGjIAoOUqBY-1" vertex="1">
          <mxGeometry x="79.5" y="280" width="120" height="60" as="geometry" />
        </mxCell>
        <mxCell id="Y4-wfhUWcPGjIAoOUqBY-13" value="MSSQL or Oracle" style="shape=cylinder3;whiteSpace=wrap;html=1;boundedLbl=1;backgroundOutline=1;size=15;sketch=1;" parent="Y4-wfhUWcPGjIAoOUqBY-1" vertex="1">
          <mxGeometry x="729" y="152" width="60" height="80" as="geometry" />
        </mxCell>
        <mxCell id="Y4-wfhUWcPGjIAoOUqBY-14" value="Web Front-end" style="rounded=1;whiteSpace=wrap;html=1;align=left;verticalAlign=top;sketch=1;" parent="Y4-wfhUWcPGjIAoOUqBY-1" vertex="1">
          <mxGeometry x="259" y="152" width="120" height="60" as="geometry" />
        </mxCell>
        <mxCell id="Y4-wfhUWcPGjIAoOUqBY-15" value="Angular, React, Vue" style="text;html=1;strokeColor=#666666;fillColor=#f5f5f5;align=center;verticalAlign=middle;whiteSpace=wrap;rounded=0;fontColor=#333333;fontSize=8;sketch=1;" parent="Y4-wfhUWcPGjIAoOUqBY-1" vertex="1">
          <mxGeometry x="263" y="176" width="110" height="20" as="geometry" />
        </mxCell>
        <mxCell id="Y4-wfhUWcPGjIAoOUqBY-16" value="Node.JS" style="rounded=1;whiteSpace=wrap;html=1;arcSize=5;verticalAlign=bottom;sketch=1;" parent="Y4-wfhUWcPGjIAoOUqBY-1" vertex="1">
          <mxGeometry x="502" y="152" width="140" height="200" as="geometry" />
        </mxCell>
        <mxCell id="Y4-wfhUWcPGjIAoOUqBY-17" value="&amp;nbsp; &amp;nbsp;-------&amp;nbsp; &amp;nbsp; &amp;nbsp;Database &lt;br&gt;&amp;nbsp; &amp;nbsp;-------&amp;nbsp; &amp;nbsp; &amp;nbsp;Abstractions" style="rounded=1;whiteSpace=wrap;html=1;sketch=1;fontSize=8;align=left;" parent="Y4-wfhUWcPGjIAoOUqBY-1" vertex="1">
          <mxGeometry x="512" y="176" width="120" height="36" as="geometry" />
        </mxCell>
        <mxCell id="Y4-wfhUWcPGjIAoOUqBY-18" value="&amp;nbsp; &amp;nbsp;-------&amp;nbsp; &amp;nbsp; &amp;nbsp;Business&lt;br&gt;&amp;nbsp; &amp;nbsp;-------&amp;nbsp; &amp;nbsp; &amp;nbsp;Logic" style="rounded=1;whiteSpace=wrap;html=1;sketch=1;fontSize=8;align=left;" parent="Y4-wfhUWcPGjIAoOUqBY-1" vertex="1">
          <mxGeometry x="512" y="222" width="120" height="36" as="geometry" />
        </mxCell>
        <mxCell id="Y4-wfhUWcPGjIAoOUqBY-19" value="&amp;nbsp; &amp;nbsp;-------&amp;nbsp; &amp;nbsp; &amp;nbsp;Services&lt;br&gt;&amp;nbsp; &amp;nbsp;-------&amp;nbsp; &amp;nbsp; &amp;nbsp;Abstractions" style="rounded=1;whiteSpace=wrap;html=1;sketch=1;fontSize=8;align=left;" parent="Y4-wfhUWcPGjIAoOUqBY-1" vertex="1">
          <mxGeometry x="512" y="272" width="120" height="36" as="geometry" />
        </mxCell>
        <mxCell id="Y4-wfhUWcPGjIAoOUqBY-20" value="RESTful Service&amp;nbsp;" style="text;html=1;strokeColor=none;fillColor=none;align=center;verticalAlign=middle;whiteSpace=wrap;rounded=0;sketch=1;fontSize=10;" parent="Y4-wfhUWcPGjIAoOUqBY-1" vertex="1">
          <mxGeometry x="268" y="100" width="102" height="20" as="geometry" />
        </mxCell>
        <mxCell id="Y4-wfhUWcPGjIAoOUqBY-23" value="API Calls" style="endArrow=classic;startArrow=classic;html=1;fontSize=10;" parent="Y4-wfhUWcPGjIAoOUqBY-1" edge="1">
          <mxGeometry width="50" height="50" relative="1" as="geometry">
            <mxPoint x="400" y="190" as="sourcePoint" />
            <mxPoint x="490" y="190" as="targetPoint" />
          </mxGeometry>
        </mxCell>
        <mxCell id="Ch6v3tHqozDRx5CL1_NA-0" value="Tax &amp;amp; Accounting Application" style="rounded=1;whiteSpace=wrap;html=1;arcSize=5;verticalAlign=bottom;sketch=1;" parent="Y4-wfhUWcPGjIAoOUqBY-1" vertex="1">
          <mxGeometry x="502" y="430" width="140" height="200" as="geometry" />
        </mxCell>
      </root>
    </mxGraphModel>
  </diagram>
  <diagram name="Copy of Page-3" id="2h80dNpGHmeq3gpLVniE">
    <mxGraphModel dx="868" dy="482" grid="1" gridSize="10" guides="1" tooltips="1" connect="1" arrows="1" fold="1" page="1" pageScale="1" pageWidth="850" pageHeight="1100" math="0" shadow="0">
      <root>
        <mxCell id="VTHyD7FX0aOBIb24Rd9I-0" />
        <mxCell id="VTHyD7FX0aOBIb24Rd9I-1" parent="VTHyD7FX0aOBIb24Rd9I-0" />
        <mxCell id="VTHyD7FX0aOBIb24Rd9I-2" value="" style="endArrow=none;html=1;sketch=1;" parent="VTHyD7FX0aOBIb24Rd9I-1" edge="1">
          <mxGeometry width="50" height="50" relative="1" as="geometry">
            <mxPoint x="40" y="80" as="sourcePoint" />
            <mxPoint x="800" y="80" as="targetPoint" />
          </mxGeometry>
        </mxCell>
        <mxCell id="VTHyD7FX0aOBIb24Rd9I-3" value="" style="endArrow=none;html=1;sketch=1;" parent="VTHyD7FX0aOBIb24Rd9I-1" edge="1">
          <mxGeometry width="50" height="50" relative="1" as="geometry">
            <mxPoint x="240" y="590" as="sourcePoint" />
            <mxPoint x="240" y="40" as="targetPoint" />
          </mxGeometry>
        </mxCell>
        <mxCell id="VTHyD7FX0aOBIb24Rd9I-4" value="" style="endArrow=none;html=1;sketch=1;" parent="VTHyD7FX0aOBIb24Rd9I-1" edge="1">
          <mxGeometry width="50" height="50" relative="1" as="geometry">
            <mxPoint x="680" y="590" as="sourcePoint" />
            <mxPoint x="680" y="50" as="targetPoint" />
          </mxGeometry>
        </mxCell>
        <mxCell id="VTHyD7FX0aOBIb24Rd9I-5" value="Client (front-end)" style="text;html=1;strokeColor=none;fillColor=none;align=center;verticalAlign=middle;whiteSpace=wrap;rounded=0;sketch=1;" parent="VTHyD7FX0aOBIb24Rd9I-1" vertex="1">
          <mxGeometry x="50" y="50" width="179" height="20" as="geometry" />
        </mxCell>
        <mxCell id="VTHyD7FX0aOBIb24Rd9I-6" value="web servers (apache, nginx, IIS, etc." style="text;html=1;strokeColor=none;fillColor=none;align=center;verticalAlign=middle;whiteSpace=wrap;rounded=0;sketch=1;" parent="VTHyD7FX0aOBIb24Rd9I-1" vertex="1">
          <mxGeometry x="250" y="50" width="340" height="20" as="geometry" />
        </mxCell>
        <mxCell id="VTHyD7FX0aOBIb24Rd9I-7" value="Front-end" style="text;html=1;strokeColor=none;fillColor=none;align=center;verticalAlign=middle;whiteSpace=wrap;rounded=0;sketch=1;" parent="VTHyD7FX0aOBIb24Rd9I-1" vertex="1">
          <mxGeometry x="610" y="50" width="179" height="20" as="geometry" />
        </mxCell>
        <mxCell id="VTHyD7FX0aOBIb24Rd9I-8" value="" style="endArrow=none;html=1;sketch=1;" parent="VTHyD7FX0aOBIb24Rd9I-1" edge="1">
          <mxGeometry width="50" height="50" relative="1" as="geometry">
            <mxPoint x="40" y="400" as="sourcePoint" />
            <mxPoint x="800" y="400" as="targetPoint" />
          </mxGeometry>
        </mxCell>
        <mxCell id="VTHyD7FX0aOBIb24Rd9I-9" value="MSSQL or Oracle" style="shape=cylinder3;whiteSpace=wrap;html=1;boundedLbl=1;backgroundOutline=1;size=15;sketch=1;" parent="VTHyD7FX0aOBIb24Rd9I-1" vertex="1">
          <mxGeometry x="729" y="460" width="60" height="80" as="geometry" />
        </mxCell>
        <mxCell id="VTHyD7FX0aOBIb24Rd9I-10" value="Browser" style="rounded=1;whiteSpace=wrap;html=1;sketch=1;" parent="VTHyD7FX0aOBIb24Rd9I-1" vertex="1">
          <mxGeometry x="79.5" y="152" width="120" height="60" as="geometry" />
        </mxCell>
        <mxCell id="VTHyD7FX0aOBIb24Rd9I-11" value="Mobile Device" style="rounded=1;whiteSpace=wrap;html=1;sketch=1;" parent="VTHyD7FX0aOBIb24Rd9I-1" vertex="1">
          <mxGeometry x="79.5" y="280" width="120" height="60" as="geometry" />
        </mxCell>
        <mxCell id="VTHyD7FX0aOBIb24Rd9I-12" value="MSSQL or Oracle" style="shape=cylinder3;whiteSpace=wrap;html=1;boundedLbl=1;backgroundOutline=1;size=15;sketch=1;" parent="VTHyD7FX0aOBIb24Rd9I-1" vertex="1">
          <mxGeometry x="729" y="152" width="60" height="80" as="geometry" />
        </mxCell>
        <mxCell id="VTHyD7FX0aOBIb24Rd9I-13" value="Web Front-end" style="rounded=1;whiteSpace=wrap;html=1;align=left;verticalAlign=top;sketch=1;" parent="VTHyD7FX0aOBIb24Rd9I-1" vertex="1">
          <mxGeometry x="259" y="152" width="120" height="60" as="geometry" />
        </mxCell>
        <mxCell id="VTHyD7FX0aOBIb24Rd9I-14" value="Angular, React, Vue" style="text;html=1;strokeColor=#666666;fillColor=#f5f5f5;align=center;verticalAlign=middle;whiteSpace=wrap;rounded=0;fontColor=#333333;fontSize=8;sketch=1;" parent="VTHyD7FX0aOBIb24Rd9I-1" vertex="1">
          <mxGeometry x="263" y="176" width="110" height="20" as="geometry" />
        </mxCell>
        <mxCell id="VTHyD7FX0aOBIb24Rd9I-15" value="Node.JS" style="rounded=1;whiteSpace=wrap;html=1;arcSize=5;verticalAlign=bottom;sketch=1;" parent="VTHyD7FX0aOBIb24Rd9I-1" vertex="1">
          <mxGeometry x="502" y="152" width="140" height="200" as="geometry" />
        </mxCell>
        <mxCell id="VTHyD7FX0aOBIb24Rd9I-16" value="&amp;nbsp; &amp;nbsp;-------&amp;nbsp; &amp;nbsp; &amp;nbsp;Database &lt;br&gt;&amp;nbsp; &amp;nbsp;-------&amp;nbsp; &amp;nbsp; &amp;nbsp;Abstractions" style="rounded=1;whiteSpace=wrap;html=1;sketch=1;fontSize=8;align=left;" parent="VTHyD7FX0aOBIb24Rd9I-1" vertex="1">
          <mxGeometry x="512" y="176" width="120" height="36" as="geometry" />
        </mxCell>
        <mxCell id="VTHyD7FX0aOBIb24Rd9I-17" value="&amp;nbsp; &amp;nbsp;-------&amp;nbsp; &amp;nbsp; &amp;nbsp;Business&lt;br&gt;&amp;nbsp; &amp;nbsp;-------&amp;nbsp; &amp;nbsp; &amp;nbsp;Logic" style="rounded=1;whiteSpace=wrap;html=1;sketch=1;fontSize=8;align=left;" parent="VTHyD7FX0aOBIb24Rd9I-1" vertex="1">
          <mxGeometry x="512" y="222" width="120" height="36" as="geometry" />
        </mxCell>
        <mxCell id="VTHyD7FX0aOBIb24Rd9I-18" value="&amp;nbsp; &amp;nbsp;-------&amp;nbsp; &amp;nbsp; &amp;nbsp;Services&lt;br&gt;&amp;nbsp; &amp;nbsp;-------&amp;nbsp; &amp;nbsp; &amp;nbsp;Abstractions" style="rounded=1;whiteSpace=wrap;html=1;sketch=1;fontSize=8;align=left;" parent="VTHyD7FX0aOBIb24Rd9I-1" vertex="1">
          <mxGeometry x="512" y="272" width="120" height="36" as="geometry" />
        </mxCell>
        <mxCell id="VTHyD7FX0aOBIb24Rd9I-19" value="RESTful Service&amp;nbsp;" style="text;html=1;strokeColor=none;fillColor=none;align=center;verticalAlign=middle;whiteSpace=wrap;rounded=0;sketch=1;fontSize=10;" parent="VTHyD7FX0aOBIb24Rd9I-1" vertex="1">
          <mxGeometry x="268" y="100" width="102" height="20" as="geometry" />
        </mxCell>
        <mxCell id="VTHyD7FX0aOBIb24Rd9I-20" value="API Calls" style="endArrow=classic;startArrow=classic;html=1;fontSize=10;" parent="VTHyD7FX0aOBIb24Rd9I-1" edge="1">
          <mxGeometry width="50" height="50" relative="1" as="geometry">
            <mxPoint x="400" y="190" as="sourcePoint" />
            <mxPoint x="490" y="190" as="targetPoint" />
          </mxGeometry>
        </mxCell>
        <mxCell id="VTHyD7FX0aOBIb24Rd9I-21" value="Tax &amp;amp; Accounting Application" style="rounded=1;whiteSpace=wrap;html=1;arcSize=5;verticalAlign=bottom;sketch=1;" parent="VTHyD7FX0aOBIb24Rd9I-1" vertex="1">
          <mxGeometry x="502" y="430" width="140" height="200" as="geometry" />
        </mxCell>
      </root>
    </mxGraphModel>
  </diagram>
  <diagram id="j0oOMHmQV8fj1FoFTmYe" name="Monolith vs ">
    <mxGraphModel dx="868" dy="482" grid="1" gridSize="10" guides="1" tooltips="1" connect="1" arrows="1" fold="1" page="1" pageScale="1" pageWidth="850" pageHeight="1100" math="0" shadow="0">
      <root>
        <mxCell id="ChgjOS0DzdqcwO1c67n--0" />
        <mxCell id="ChgjOS0DzdqcwO1c67n--1" parent="ChgjOS0DzdqcwO1c67n--0" />
        <mxCell id="0GyfHHrNsy4266TK6_Mc-1" value="" style="rounded=1;whiteSpace=wrap;html=1;sketch=0;fontSize=10;align=left;dashed=1;" parent="ChgjOS0DzdqcwO1c67n--1" vertex="1">
          <mxGeometry x="40" y="80" width="180" height="310" as="geometry" />
        </mxCell>
        <mxCell id="0GyfHHrNsy4266TK6_Mc-2" value="User Interface" style="rounded=1;whiteSpace=wrap;html=1;sketch=0;fontSize=10;align=center;fillColor=#d5e8d4;strokeColor=#82b366;" parent="ChgjOS0DzdqcwO1c67n--1" vertex="1">
          <mxGeometry x="69" y="113" width="120" height="40" as="geometry" />
        </mxCell>
        <mxCell id="0GyfHHrNsy4266TK6_Mc-3" value="Business Layer" style="rounded=1;whiteSpace=wrap;html=1;sketch=0;fontSize=10;align=center;fillColor=#dae8fc;strokeColor=#6c8ebf;" parent="ChgjOS0DzdqcwO1c67n--1" vertex="1">
          <mxGeometry x="69" y="156" width="120" height="40" as="geometry" />
        </mxCell>
        <mxCell id="0GyfHHrNsy4266TK6_Mc-4" value="Data Interface" style="rounded=1;whiteSpace=wrap;html=1;sketch=0;fontSize=10;align=center;fillColor=#fff2cc;strokeColor=#d6b656;" parent="ChgjOS0DzdqcwO1c67n--1" vertex="1">
          <mxGeometry x="69" y="200" width="120" height="40" as="geometry" />
        </mxCell>
        <mxCell id="0GyfHHrNsy4266TK6_Mc-5" value="" style="shape=cylinder3;whiteSpace=wrap;html=1;boundedLbl=1;backgroundOutline=1;size=15;sketch=0;fontSize=10;align=left;fillColor=#eeeeee;strokeColor=#36393d;" parent="ChgjOS0DzdqcwO1c67n--1" vertex="1">
          <mxGeometry x="74" y="300" width="110" height="60" as="geometry" />
        </mxCell>
        <mxCell id="0GyfHHrNsy4266TK6_Mc-8" value="" style="endArrow=classic;html=1;fontSize=10;sketch=0;" parent="ChgjOS0DzdqcwO1c67n--1" edge="1">
          <mxGeometry width="50" height="50" relative="1" as="geometry">
            <mxPoint x="120" y="295" as="sourcePoint" />
            <mxPoint x="120" y="245" as="targetPoint" />
          </mxGeometry>
        </mxCell>
        <mxCell id="0GyfHHrNsy4266TK6_Mc-9" value="" style="endArrow=classic;html=1;fontSize=10;sketch=0;" parent="ChgjOS0DzdqcwO1c67n--1" edge="1">
          <mxGeometry width="50" height="50" relative="1" as="geometry">
            <mxPoint x="140" y="245" as="sourcePoint" />
            <mxPoint x="140" y="295" as="targetPoint" />
          </mxGeometry>
        </mxCell>
        <mxCell id="0GyfHHrNsy4266TK6_Mc-10" value="Monolithic Architecture&lt;br&gt;&lt;span style=&quot;font-weight: normal&quot;&gt;Single Unit&lt;/span&gt;" style="text;html=1;strokeColor=none;fillColor=none;align=center;verticalAlign=middle;whiteSpace=wrap;rounded=0;sketch=0;fontSize=12;fontStyle=1" parent="ChgjOS0DzdqcwO1c67n--1" vertex="1">
          <mxGeometry x="60" y="50" width="140" height="20" as="geometry" />
        </mxCell>
        <mxCell id="0GyfHHrNsy4266TK6_Mc-11" value="" style="rounded=1;whiteSpace=wrap;html=1;sketch=0;fontSize=10;align=left;dashed=1;" parent="ChgjOS0DzdqcwO1c67n--1" vertex="1">
          <mxGeometry x="260" y="80" width="180" height="310" as="geometry" />
        </mxCell>
        <mxCell id="0GyfHHrNsy4266TK6_Mc-12" value="User Interface" style="rounded=1;whiteSpace=wrap;html=1;sketch=0;fontSize=10;align=center;fillColor=#d5e8d4;strokeColor=#82b366;" parent="ChgjOS0DzdqcwO1c67n--1" vertex="1">
          <mxGeometry x="289" y="113" width="120" height="40" as="geometry" />
        </mxCell>
        <mxCell id="0GyfHHrNsy4266TK6_Mc-13" value="Business Layer" style="rounded=1;whiteSpace=wrap;html=1;sketch=0;fontSize=10;align=center;fillColor=#dae8fc;strokeColor=#6c8ebf;" parent="ChgjOS0DzdqcwO1c67n--1" vertex="1">
          <mxGeometry x="289" y="156" width="120" height="40" as="geometry" />
        </mxCell>
        <mxCell id="0GyfHHrNsy4266TK6_Mc-14" value="Data Interface" style="rounded=1;whiteSpace=wrap;html=1;sketch=0;fontSize=10;align=center;fillColor=#fff2cc;strokeColor=#d6b656;" parent="ChgjOS0DzdqcwO1c67n--1" vertex="1">
          <mxGeometry x="289" y="200" width="120" height="40" as="geometry" />
        </mxCell>
        <mxCell id="0GyfHHrNsy4266TK6_Mc-15" value="" style="shape=cylinder3;whiteSpace=wrap;html=1;boundedLbl=1;backgroundOutline=1;size=15;sketch=0;fontSize=10;align=left;fillColor=#eeeeee;strokeColor=#36393d;" parent="ChgjOS0DzdqcwO1c67n--1" vertex="1">
          <mxGeometry x="294" y="300" width="110" height="60" as="geometry" />
        </mxCell>
        <mxCell id="0GyfHHrNsy4266TK6_Mc-16" value="" style="endArrow=classic;html=1;fontSize=10;sketch=0;" parent="ChgjOS0DzdqcwO1c67n--1" edge="1">
          <mxGeometry width="50" height="50" relative="1" as="geometry">
            <mxPoint x="340" y="295" as="sourcePoint" />
            <mxPoint x="340" y="245" as="targetPoint" />
          </mxGeometry>
        </mxCell>
        <mxCell id="0GyfHHrNsy4266TK6_Mc-17" value="" style="endArrow=classic;html=1;fontSize=10;sketch=0;" parent="ChgjOS0DzdqcwO1c67n--1" edge="1">
          <mxGeometry width="50" height="50" relative="1" as="geometry">
            <mxPoint x="360" y="245" as="sourcePoint" />
            <mxPoint x="360" y="295" as="targetPoint" />
          </mxGeometry>
        </mxCell>
        <mxCell id="0GyfHHrNsy4266TK6_Mc-18" value="Microservices Architecture&lt;br&gt;" style="text;html=1;strokeColor=none;fillColor=none;align=center;verticalAlign=middle;whiteSpace=wrap;rounded=0;sketch=0;fontSize=12;fontStyle=1" parent="ChgjOS0DzdqcwO1c67n--1" vertex="1">
          <mxGeometry x="265" y="50" width="160" height="20" as="geometry" />
        </mxCell>
      </root>
    </mxGraphModel>
  </diagram>
  <diagram id="OTBLjbjiZRgTGWQhOfdP" name="Page-6">
    <mxGraphModel dx="868" dy="482" grid="1" gridSize="10" guides="1" tooltips="1" connect="1" arrows="1" fold="1" page="1" pageScale="1" pageWidth="850" pageHeight="1100" math="0" shadow="0">
      <root>
        <mxCell id="LcatkoDa9XVTOTNs5aFF-0" />
        <mxCell id="LcatkoDa9XVTOTNs5aFF-1" parent="LcatkoDa9XVTOTNs5aFF-0" />
        <mxCell id="LcatkoDa9XVTOTNs5aFF-21" style="rounded=0;sketch=0;orthogonalLoop=1;jettySize=auto;html=1;entryX=0;entryY=0.5;entryDx=0;entryDy=0;fontSize=12;exitX=1;exitY=0.5;exitDx=0;exitDy=0;" parent="LcatkoDa9XVTOTNs5aFF-1" source="LcatkoDa9XVTOTNs5aFF-2" target="LcatkoDa9XVTOTNs5aFF-3" edge="1">
          <mxGeometry relative="1" as="geometry" />
        </mxCell>
        <mxCell id="LcatkoDa9XVTOTNs5aFF-22" style="edgeStyle=none;rounded=0;sketch=0;orthogonalLoop=1;jettySize=auto;html=1;entryX=0;entryY=0.5;entryDx=0;entryDy=0;fontSize=12;exitX=1;exitY=0.5;exitDx=0;exitDy=0;" parent="LcatkoDa9XVTOTNs5aFF-1" source="LcatkoDa9XVTOTNs5aFF-2" target="LcatkoDa9XVTOTNs5aFF-4" edge="1">
          <mxGeometry relative="1" as="geometry" />
        </mxCell>
        <mxCell id="LcatkoDa9XVTOTNs5aFF-23" style="edgeStyle=none;rounded=0;sketch=0;orthogonalLoop=1;jettySize=auto;html=1;entryX=0;entryY=0.5;entryDx=0;entryDy=0;fontSize=12;exitX=1;exitY=0.5;exitDx=0;exitDy=0;" parent="LcatkoDa9XVTOTNs5aFF-1" source="LcatkoDa9XVTOTNs5aFF-2" target="LcatkoDa9XVTOTNs5aFF-5" edge="1">
          <mxGeometry relative="1" as="geometry">
            <mxPoint x="274" y="230" as="sourcePoint" />
          </mxGeometry>
        </mxCell>
        <mxCell id="LcatkoDa9XVTOTNs5aFF-24" style="edgeStyle=none;rounded=0;sketch=0;orthogonalLoop=1;jettySize=auto;html=1;entryX=0;entryY=0.5;entryDx=0;entryDy=0;fontSize=12;exitX=1;exitY=0.5;exitDx=0;exitDy=0;" parent="LcatkoDa9XVTOTNs5aFF-1" source="LcatkoDa9XVTOTNs5aFF-2" target="LcatkoDa9XVTOTNs5aFF-6" edge="1">
          <mxGeometry relative="1" as="geometry" />
        </mxCell>
        <mxCell id="LcatkoDa9XVTOTNs5aFF-25" style="edgeStyle=none;rounded=0;sketch=0;orthogonalLoop=1;jettySize=auto;html=1;entryX=0;entryY=0.5;entryDx=0;entryDy=0;fontSize=12;exitX=1;exitY=0.5;exitDx=0;exitDy=0;" parent="LcatkoDa9XVTOTNs5aFF-1" source="LcatkoDa9XVTOTNs5aFF-2" target="LcatkoDa9XVTOTNs5aFF-7" edge="1">
          <mxGeometry relative="1" as="geometry" />
        </mxCell>
        <mxCell id="LcatkoDa9XVTOTNs5aFF-2" value="API &lt;br&gt;Gateway" style="rounded=1;whiteSpace=wrap;html=1;sketch=0;fontSize=12;align=center;" parent="LcatkoDa9XVTOTNs5aFF-1" vertex="1">
          <mxGeometry x="204" y="238" width="70" height="60" as="geometry" />
        </mxCell>
        <mxCell id="LcatkoDa9XVTOTNs5aFF-16" style="edgeStyle=orthogonalEdgeStyle;rounded=0;sketch=0;orthogonalLoop=1;jettySize=auto;html=1;fontSize=12;" parent="LcatkoDa9XVTOTNs5aFF-1" source="LcatkoDa9XVTOTNs5aFF-3" target="LcatkoDa9XVTOTNs5aFF-10" edge="1">
          <mxGeometry relative="1" as="geometry" />
        </mxCell>
        <mxCell id="LcatkoDa9XVTOTNs5aFF-3" value="Client Microservice" style="rounded=1;whiteSpace=wrap;html=1;sketch=0;fontSize=12;align=center;" parent="LcatkoDa9XVTOTNs5aFF-1" vertex="1">
          <mxGeometry x="409" y="80" width="75" height="60" as="geometry" />
        </mxCell>
        <mxCell id="LcatkoDa9XVTOTNs5aFF-17" style="edgeStyle=orthogonalEdgeStyle;rounded=0;sketch=0;orthogonalLoop=1;jettySize=auto;html=1;fontSize=12;entryX=0;entryY=0.5;entryDx=0;entryDy=0;entryPerimeter=0;" parent="LcatkoDa9XVTOTNs5aFF-1" source="LcatkoDa9XVTOTNs5aFF-4" target="LcatkoDa9XVTOTNs5aFF-11" edge="1">
          <mxGeometry relative="1" as="geometry">
            <mxPoint x="554" y="188" as="targetPoint" />
          </mxGeometry>
        </mxCell>
        <mxCell id="LcatkoDa9XVTOTNs5aFF-4" value="Account&lt;br&gt;Microservice" style="rounded=1;whiteSpace=wrap;html=1;sketch=0;fontSize=12;align=center;" parent="LcatkoDa9XVTOTNs5aFF-1" vertex="1">
          <mxGeometry x="409" y="160" width="75" height="60" as="geometry" />
        </mxCell>
        <mxCell id="LcatkoDa9XVTOTNs5aFF-18" style="edgeStyle=orthogonalEdgeStyle;rounded=0;sketch=0;orthogonalLoop=1;jettySize=auto;html=1;entryX=0;entryY=0.5;entryDx=0;entryDy=0;entryPerimeter=0;fontSize=12;" parent="LcatkoDa9XVTOTNs5aFF-1" source="LcatkoDa9XVTOTNs5aFF-5" target="LcatkoDa9XVTOTNs5aFF-13" edge="1">
          <mxGeometry relative="1" as="geometry" />
        </mxCell>
        <mxCell id="LcatkoDa9XVTOTNs5aFF-5" value="Portfolio&lt;br&gt;Microservice" style="rounded=1;whiteSpace=wrap;html=1;sketch=0;fontSize=12;align=center;" parent="LcatkoDa9XVTOTNs5aFF-1" vertex="1">
          <mxGeometry x="409" y="240" width="75" height="60" as="geometry" />
        </mxCell>
        <mxCell id="LcatkoDa9XVTOTNs5aFF-19" style="edgeStyle=orthogonalEdgeStyle;rounded=0;sketch=0;orthogonalLoop=1;jettySize=auto;html=1;entryX=0;entryY=0.5;entryDx=0;entryDy=0;entryPerimeter=0;fontSize=12;" parent="LcatkoDa9XVTOTNs5aFF-1" source="LcatkoDa9XVTOTNs5aFF-6" target="LcatkoDa9XVTOTNs5aFF-14" edge="1">
          <mxGeometry relative="1" as="geometry" />
        </mxCell>
        <mxCell id="LcatkoDa9XVTOTNs5aFF-6" value="Securities&lt;br&gt;Microservice" style="rounded=1;whiteSpace=wrap;html=1;sketch=0;fontSize=12;align=center;" parent="LcatkoDa9XVTOTNs5aFF-1" vertex="1">
          <mxGeometry x="409" y="320" width="75" height="60" as="geometry" />
        </mxCell>
        <mxCell id="LcatkoDa9XVTOTNs5aFF-20" style="edgeStyle=orthogonalEdgeStyle;rounded=0;sketch=0;orthogonalLoop=1;jettySize=auto;html=1;entryX=0;entryY=0.5;entryDx=0;entryDy=0;entryPerimeter=0;fontSize=12;" parent="LcatkoDa9XVTOTNs5aFF-1" source="LcatkoDa9XVTOTNs5aFF-7" target="LcatkoDa9XVTOTNs5aFF-15" edge="1">
          <mxGeometry relative="1" as="geometry" />
        </mxCell>
        <mxCell id="LcatkoDa9XVTOTNs5aFF-7" value="Transactions&lt;br&gt;Microservice" style="rounded=1;whiteSpace=wrap;html=1;sketch=0;fontSize=12;align=center;" parent="LcatkoDa9XVTOTNs5aFF-1" vertex="1">
          <mxGeometry x="409" y="400" width="75" height="60" as="geometry" />
        </mxCell>
        <mxCell id="LcatkoDa9XVTOTNs5aFF-10" value="" style="shape=cylinder3;whiteSpace=wrap;html=1;boundedLbl=1;backgroundOutline=1;size=15;sketch=0;fontSize=12;align=center;" parent="LcatkoDa9XVTOTNs5aFF-1" vertex="1">
          <mxGeometry x="564" y="80" width="60" height="60" as="geometry" />
        </mxCell>
        <mxCell id="LcatkoDa9XVTOTNs5aFF-11" value="" style="shape=cylinder3;whiteSpace=wrap;html=1;boundedLbl=1;backgroundOutline=1;size=15;sketch=0;fontSize=12;align=center;" parent="LcatkoDa9XVTOTNs5aFF-1" vertex="1">
          <mxGeometry x="564" y="160" width="60" height="60" as="geometry" />
        </mxCell>
        <mxCell id="LcatkoDa9XVTOTNs5aFF-13" value="" style="shape=cylinder3;whiteSpace=wrap;html=1;boundedLbl=1;backgroundOutline=1;size=15;sketch=0;fontSize=12;align=center;" parent="LcatkoDa9XVTOTNs5aFF-1" vertex="1">
          <mxGeometry x="564" y="240" width="60" height="60" as="geometry" />
        </mxCell>
        <mxCell id="LcatkoDa9XVTOTNs5aFF-14" value="" style="shape=cylinder3;whiteSpace=wrap;html=1;boundedLbl=1;backgroundOutline=1;size=15;sketch=0;fontSize=12;align=center;" parent="LcatkoDa9XVTOTNs5aFF-1" vertex="1">
          <mxGeometry x="564" y="320" width="60" height="60" as="geometry" />
        </mxCell>
        <mxCell id="LcatkoDa9XVTOTNs5aFF-15" value="" style="shape=cylinder3;whiteSpace=wrap;html=1;boundedLbl=1;backgroundOutline=1;size=15;sketch=0;fontSize=12;align=center;" parent="LcatkoDa9XVTOTNs5aFF-1" vertex="1">
          <mxGeometry x="564" y="400" width="60" height="60" as="geometry" />
        </mxCell>
        <mxCell id="LcatkoDa9XVTOTNs5aFF-27" value="" style="edgeStyle=none;rounded=0;sketch=0;orthogonalLoop=1;jettySize=auto;html=1;fontSize=12;endArrow=none;endFill=0;" parent="LcatkoDa9XVTOTNs5aFF-1" source="LcatkoDa9XVTOTNs5aFF-26" target="LcatkoDa9XVTOTNs5aFF-2" edge="1">
          <mxGeometry relative="1" as="geometry" />
        </mxCell>
        <mxCell id="LcatkoDa9XVTOTNs5aFF-26" value="User Interface" style="rounded=1;whiteSpace=wrap;html=1;sketch=0;fontSize=12;align=center;" parent="LcatkoDa9XVTOTNs5aFF-1" vertex="1">
          <mxGeometry x="54" y="238" width="70" height="60" as="geometry" />
        </mxCell>
      </root>
    </mxGraphModel>
  </diagram>
  <diagram id="kIHus1DEzXiiIoJL71DI" name="Page-9">
    <mxGraphModel dx="868" dy="482" grid="1" gridSize="10" guides="1" tooltips="1" connect="1" arrows="1" fold="1" page="1" pageScale="1" pageWidth="850" pageHeight="1100" math="0" shadow="0">
      <root>
        <mxCell id="wROKSEDzPOJSCFTy-Gpg-0" />
        <mxCell id="wROKSEDzPOJSCFTy-Gpg-1" parent="wROKSEDzPOJSCFTy-Gpg-0" />
        <mxCell id="wROKSEDzPOJSCFTy-Gpg-2" value="&lt;font color=&quot;#999999&quot;&gt;Composite UI&lt;br&gt;&lt;br&gt;&lt;/font&gt;" style="rounded=1;whiteSpace=wrap;html=1;sketch=0;arcSize=8;verticalAlign=top;fontStyle=1" parent="wROKSEDzPOJSCFTy-Gpg-1" vertex="1">
          <mxGeometry x="40" y="40" width="320" height="350" as="geometry" />
        </mxCell>
        <mxCell id="wROKSEDzPOJSCFTy-Gpg-3" value="header" style="rounded=1;whiteSpace=wrap;html=1;sketch=0;strokeColor=#E07A5F;fillColor=#F2CC8F;fontColor=#393C56;" parent="wROKSEDzPOJSCFTy-Gpg-1" vertex="1">
          <mxGeometry x="50" y="70" width="290" height="40" as="geometry" />
        </mxCell>
      </root>
    </mxGraphModel>
  </diagram>
  <diagram name="Copy of Option 1" id="xi6ly4jB5eo-yrJm-vYY">
    <mxGraphModel dx="868" dy="482" grid="1" gridSize="10" guides="1" tooltips="1" connect="1" arrows="1" fold="1" page="1" pageScale="1" pageWidth="850" pageHeight="1100" math="0" shadow="0">
      <root>
        <mxCell id="B1sa2ZudID5PoaIgerf2-0" />
        <mxCell id="B1sa2ZudID5PoaIgerf2-1" parent="B1sa2ZudID5PoaIgerf2-0" />
        <mxCell id="B1sa2ZudID5PoaIgerf2-2" value="" style="rounded=1;arcSize=2;dashed=0;fillColor=none;gradientColor=none;strokeWidth=2;fontSize=10;" parent="B1sa2ZudID5PoaIgerf2-1" vertex="1">
          <mxGeometry x="860" y="430" width="680" height="370" as="geometry" />
        </mxCell>
        <mxCell id="B1sa2ZudID5PoaIgerf2-3" value="Region - us-east-1" style="points=[[0,0],[0.25,0],[0.5,0],[0.75,0],[1,0],[1,0.25],[1,0.5],[1,0.75],[1,1],[0.75,1],[0.5,1],[0.25,1],[0,1],[0,0.75],[0,0.5],[0,0.25]];outlineConnect=0;gradientColor=none;html=1;whiteSpace=wrap;fontSize=12;fontStyle=0;shape=mxgraph.aws4.group;grIcon=mxgraph.aws4.group_region;strokeColor=#147EBA;fillColor=none;verticalAlign=top;align=left;spacingLeft=30;fontColor=#147EBA;dashed=1;" parent="B1sa2ZudID5PoaIgerf2-1" vertex="1">
          <mxGeometry x="890" y="460" width="620" height="320" as="geometry" />
        </mxCell>
        <mxCell id="B1sa2ZudID5PoaIgerf2-4" value="VPC - 10.0.0.0/16" style="points=[[0,0],[0.25,0],[0.5,0],[0.75,0],[1,0],[1,0.25],[1,0.5],[1,0.75],[1,1],[0.75,1],[0.5,1],[0.25,1],[0,1],[0,0.75],[0,0.5],[0,0.25]];outlineConnect=0;gradientColor=none;html=1;whiteSpace=wrap;fontSize=12;fontStyle=0;shape=mxgraph.aws4.group;grIcon=mxgraph.aws4.group_vpc;strokeColor=#248814;fillColor=none;verticalAlign=top;align=left;spacingLeft=30;fontColor=#AAB7B8;dashed=0;" parent="B1sa2ZudID5PoaIgerf2-1" vertex="1">
          <mxGeometry x="920" y="500" width="560" height="260" as="geometry" />
        </mxCell>
        <mxCell id="B1sa2ZudID5PoaIgerf2-5" value="Availability zone&amp;nbsp;" style="outlineConnect=0;gradientColor=none;html=1;whiteSpace=wrap;fontSize=12;fontStyle=0;shape=mxgraph.aws4.group;grIcon=mxgraph.aws4.group_availability_zone;strokeColor=#545B64;fillColor=none;verticalAlign=top;align=left;spacingLeft=30;fontColor=#545B64;dashed=1;" parent="B1sa2ZudID5PoaIgerf2-1" vertex="1">
          <mxGeometry x="951" y="540" width="150" height="200" as="geometry" />
        </mxCell>
        <mxCell id="B1sa2ZudID5PoaIgerf2-6" value="DynamoDB&lt;br&gt;ServerLess" style="outlineConnect=0;dashed=0;verticalLabelPosition=bottom;verticalAlign=top;align=center;html=1;shape=mxgraph.aws3.dynamo_db;fillColor=#2E73B8;gradientColor=none;rounded=0;sketch=0;strokeColor=#E07A5F;fontColor=#393C56;" parent="B1sa2ZudID5PoaIgerf2-1" vertex="1">
          <mxGeometry x="560" y="200" width="72" height="81" as="geometry" />
        </mxCell>
        <mxCell id="B1sa2ZudID5PoaIgerf2-7" value="" style="rounded=1;whiteSpace=wrap;html=1;sketch=0;strokeColor=#E07A5F;fontColor=#393C56;fillColor=#FFFFFF;arcSize=4;" parent="B1sa2ZudID5PoaIgerf2-1" vertex="1">
          <mxGeometry x="120" y="89" width="140" height="401" as="geometry" />
        </mxCell>
        <mxCell id="B1sa2ZudID5PoaIgerf2-8" value="" style="outlineConnect=0;fontColor=#232F3E;gradientColor=#F78E04;gradientDirection=north;fillColor=#D05C17;strokeColor=#ffffff;dashed=0;verticalLabelPosition=bottom;verticalAlign=top;align=center;html=1;fontSize=12;fontStyle=0;aspect=fixed;shape=mxgraph.aws4.resourceIcon;resIcon=mxgraph.aws4.lambda;rounded=0;sketch=0;" parent="B1sa2ZudID5PoaIgerf2-1" vertex="1">
          <mxGeometry x="130" y="70" width="38" height="38" as="geometry" />
        </mxCell>
        <mxCell id="B1sa2ZudID5PoaIgerf2-9" value="&#xa;&#xa;&lt;span style=&quot;color: rgb(57, 60, 86); font-family: helvetica; font-size: 12px; font-style: normal; font-weight: 400; letter-spacing: normal; text-align: center; text-indent: 0px; text-transform: none; word-spacing: 0px; background-color: rgb(248, 249, 250); display: inline; float: none;&quot;&gt;Customer&lt;span&gt;&amp;nbsp;&lt;/span&gt;&lt;/span&gt;&lt;br style=&quot;color: rgb(57, 60, 86); font-family: helvetica; font-size: 12px; font-style: normal; font-weight: 400; letter-spacing: normal; text-align: center; text-indent: 0px; text-transform: none; word-spacing: 0px; background-color: rgb(248, 249, 250);&quot;&gt;&lt;span style=&quot;color: rgb(57, 60, 86); font-family: helvetica; font-size: 12px; font-style: normal; font-weight: 400; letter-spacing: normal; text-align: center; text-indent: 0px; text-transform: none; word-spacing: 0px; background-color: rgb(248, 249, 250); display: inline; float: none;&quot;&gt;API&lt;/span&gt;&#xa;&#xa;" style="rounded=1;whiteSpace=wrap;html=1;sketch=0;strokeColor=#E07A5F;fillColor=#FFFFFF;fontColor=#393C56;" parent="B1sa2ZudID5PoaIgerf2-1" vertex="1">
          <mxGeometry x="145" y="140" width="95" height="40" as="geometry" />
        </mxCell>
        <mxCell id="B1sa2ZudID5PoaIgerf2-10" value="&lt;font face=&quot;helvetica&quot;&gt;Acccount&lt;/font&gt;&lt;br style=&quot;color: rgb(57 , 60 , 86) ; font-family: &amp;#34;helvetica&amp;#34; ; font-size: 12px ; font-style: normal ; font-weight: 400 ; letter-spacing: normal ; text-align: center ; text-indent: 0px ; text-transform: none ; word-spacing: 0px ; background-color: rgb(248 , 249 , 250)&quot;&gt;&lt;span style=&quot;color: rgb(57 , 60 , 86) ; font-family: &amp;#34;helvetica&amp;#34; ; font-size: 12px ; font-style: normal ; font-weight: 400 ; letter-spacing: normal ; text-align: center ; text-indent: 0px ; text-transform: none ; word-spacing: 0px ; background-color: rgb(248 , 249 , 250) ; display: inline ; float: none&quot;&gt;API&lt;/span&gt;" style="rounded=1;whiteSpace=wrap;html=1;sketch=0;strokeColor=#E07A5F;fillColor=#FFFFFF;fontColor=#393C56;" parent="B1sa2ZudID5PoaIgerf2-1" vertex="1">
          <mxGeometry x="145" y="190" width="95" height="40" as="geometry" />
        </mxCell>
        <mxCell id="B1sa2ZudID5PoaIgerf2-11" value="&lt;font face=&quot;helvetica&quot;&gt;Portfolio&lt;br&gt;&lt;/font&gt;API" style="rounded=1;whiteSpace=wrap;html=1;sketch=0;strokeColor=#E07A5F;fillColor=#FFFFFF;fontColor=#393C56;" parent="B1sa2ZudID5PoaIgerf2-1" vertex="1">
          <mxGeometry x="145" y="240" width="95" height="40" as="geometry" />
        </mxCell>
        <mxCell id="B1sa2ZudID5PoaIgerf2-12" value="&lt;font face=&quot;helvetica&quot;&gt;Pricing&lt;br&gt;&lt;/font&gt;API" style="rounded=1;whiteSpace=wrap;html=1;sketch=0;strokeColor=#E07A5F;fillColor=#FFFFFF;fontColor=#393C56;" parent="B1sa2ZudID5PoaIgerf2-1" vertex="1">
          <mxGeometry x="145" y="290" width="95" height="40" as="geometry" />
        </mxCell>
        <mxCell id="B1sa2ZudID5PoaIgerf2-13" value="Securities&lt;br&gt;API" style="rounded=1;whiteSpace=wrap;html=1;sketch=0;strokeColor=#E07A5F;fillColor=#FFFFFF;fontColor=#393C56;" parent="B1sa2ZudID5PoaIgerf2-1" vertex="1">
          <mxGeometry x="145" y="340" width="95" height="40" as="geometry" />
        </mxCell>
        <mxCell id="B1sa2ZudID5PoaIgerf2-14" value="&lt;font face=&quot;helvetica&quot;&gt;Pricing&lt;/font&gt;&lt;br style=&quot;color: rgb(57 , 60 , 86) ; font-family: &amp;#34;helvetica&amp;#34; ; font-size: 12px ; font-style: normal ; font-weight: 400 ; letter-spacing: normal ; text-align: center ; text-indent: 0px ; text-transform: none ; word-spacing: 0px ; background-color: rgb(248 , 249 , 250)&quot;&gt;&lt;span style=&quot;color: rgb(57 , 60 , 86) ; font-family: &amp;#34;helvetica&amp;#34; ; font-size: 12px ; font-style: normal ; font-weight: 400 ; letter-spacing: normal ; text-align: center ; text-indent: 0px ; text-transform: none ; word-spacing: 0px ; background-color: rgb(248 , 249 , 250) ; display: inline ; float: none&quot;&gt;API&lt;/span&gt;" style="rounded=1;whiteSpace=wrap;html=1;sketch=0;strokeColor=#E07A5F;fillColor=#FFFFFF;fontColor=#393C56;" parent="B1sa2ZudID5PoaIgerf2-1" vertex="1">
          <mxGeometry x="145" y="390" width="95" height="40" as="geometry" />
        </mxCell>
        <mxCell id="B1sa2ZudID5PoaIgerf2-15" value="&lt;font face=&quot;helvetica&quot;&gt;Benchmarks&lt;br&gt;&lt;/font&gt;API" style="rounded=1;whiteSpace=wrap;html=1;sketch=0;strokeColor=#E07A5F;fillColor=#FFFFFF;fontColor=#393C56;" parent="B1sa2ZudID5PoaIgerf2-1" vertex="1">
          <mxGeometry x="145" y="440" width="95" height="40" as="geometry" />
        </mxCell>
        <mxCell id="B1sa2ZudID5PoaIgerf2-16" value="" style="outlineConnect=0;dashed=0;verticalLabelPosition=bottom;verticalAlign=top;align=center;html=1;shape=mxgraph.aws3.cloud_2;fillColor=#F58534;gradientColor=none;fontSize=10;" parent="B1sa2ZudID5PoaIgerf2-1" vertex="1">
          <mxGeometry x="870" y="410" width="40" height="35" as="geometry" />
        </mxCell>
        <mxCell id="B1sa2ZudID5PoaIgerf2-17" value="Public subnet" style="points=[[0,0],[0.25,0],[0.5,0],[0.75,0],[1,0],[1,0.25],[1,0.5],[1,0.75],[1,1],[0.75,1],[0.5,1],[0.25,1],[0,1],[0,0.75],[0,0.5],[0,0.25]];outlineConnect=0;gradientColor=none;html=1;whiteSpace=wrap;fontSize=12;fontStyle=0;shape=mxgraph.aws4.group;grIcon=mxgraph.aws4.group_security_group;grStroke=0;strokeColor=#248814;fillColor=#E9F3E6;verticalAlign=top;align=left;spacingLeft=30;fontColor=#248814;dashed=0;" parent="B1sa2ZudID5PoaIgerf2-1" vertex="1">
          <mxGeometry x="964" y="580" width="125" height="60" as="geometry" />
        </mxCell>
        <mxCell id="B1sa2ZudID5PoaIgerf2-18" value="Private subnet" style="points=[[0,0],[0.25,0],[0.5,0],[0.75,0],[1,0],[1,0.25],[1,0.5],[1,0.75],[1,1],[0.75,1],[0.5,1],[0.25,1],[0,1],[0,0.75],[0,0.5],[0,0.25]];outlineConnect=0;gradientColor=none;html=1;whiteSpace=wrap;fontSize=12;fontStyle=0;shape=mxgraph.aws4.group;grIcon=mxgraph.aws4.group_security_group;grStroke=0;strokeColor=#147EBA;fillColor=#E6F2F8;verticalAlign=top;align=left;spacingLeft=30;fontColor=#147EBA;dashed=0;" parent="B1sa2ZudID5PoaIgerf2-1" vertex="1">
          <mxGeometry x="964" y="650" width="125" height="70" as="geometry" />
        </mxCell>
        <mxCell id="B1sa2ZudID5PoaIgerf2-19" value="Availability zone&amp;nbsp;" style="outlineConnect=0;gradientColor=none;html=1;whiteSpace=wrap;fontSize=12;fontStyle=0;shape=mxgraph.aws4.group;grIcon=mxgraph.aws4.group_availability_zone;strokeColor=#545B64;fillColor=none;verticalAlign=top;align=left;spacingLeft=30;fontColor=#545B64;dashed=1;" parent="B1sa2ZudID5PoaIgerf2-1" vertex="1">
          <mxGeometry x="1130" y="540" width="150" height="200" as="geometry" />
        </mxCell>
        <mxCell id="B1sa2ZudID5PoaIgerf2-20" value="Public subnet" style="points=[[0,0],[0.25,0],[0.5,0],[0.75,0],[1,0],[1,0.25],[1,0.5],[1,0.75],[1,1],[0.75,1],[0.5,1],[0.25,1],[0,1],[0,0.75],[0,0.5],[0,0.25]];outlineConnect=0;gradientColor=none;html=1;whiteSpace=wrap;fontSize=12;fontStyle=0;shape=mxgraph.aws4.group;grIcon=mxgraph.aws4.group_security_group;grStroke=0;strokeColor=#248814;fillColor=#E9F3E6;verticalAlign=top;align=left;spacingLeft=30;fontColor=#248814;dashed=0;" parent="B1sa2ZudID5PoaIgerf2-1" vertex="1">
          <mxGeometry x="1143" y="580" width="125" height="60" as="geometry" />
        </mxCell>
        <mxCell id="B1sa2ZudID5PoaIgerf2-21" value="Private subnet" style="points=[[0,0],[0.25,0],[0.5,0],[0.75,0],[1,0],[1,0.25],[1,0.5],[1,0.75],[1,1],[0.75,1],[0.5,1],[0.25,1],[0,1],[0,0.75],[0,0.5],[0,0.25]];outlineConnect=0;gradientColor=none;html=1;whiteSpace=wrap;fontSize=12;fontStyle=0;shape=mxgraph.aws4.group;grIcon=mxgraph.aws4.group_security_group;grStroke=0;strokeColor=#147EBA;fillColor=#E6F2F8;verticalAlign=top;align=left;spacingLeft=30;fontColor=#147EBA;dashed=0;" parent="B1sa2ZudID5PoaIgerf2-1" vertex="1">
          <mxGeometry x="1142.5" y="650" width="125" height="70" as="geometry" />
        </mxCell>
        <mxCell id="B1sa2ZudID5PoaIgerf2-22" value="Availability zone&amp;nbsp;" style="outlineConnect=0;gradientColor=none;html=1;whiteSpace=wrap;fontSize=12;fontStyle=0;shape=mxgraph.aws4.group;grIcon=mxgraph.aws4.group_availability_zone;strokeColor=#545B64;fillColor=none;verticalAlign=top;align=left;spacingLeft=30;fontColor=#545B64;dashed=1;" parent="B1sa2ZudID5PoaIgerf2-1" vertex="1">
          <mxGeometry x="1310" y="540" width="150" height="200" as="geometry" />
        </mxCell>
        <mxCell id="B1sa2ZudID5PoaIgerf2-23" value="Public subnet" style="points=[[0,0],[0.25,0],[0.5,0],[0.75,0],[1,0],[1,0.25],[1,0.5],[1,0.75],[1,1],[0.75,1],[0.5,1],[0.25,1],[0,1],[0,0.75],[0,0.5],[0,0.25]];outlineConnect=0;gradientColor=none;html=1;whiteSpace=wrap;fontSize=12;fontStyle=0;shape=mxgraph.aws4.group;grIcon=mxgraph.aws4.group_security_group;grStroke=0;strokeColor=#248814;fillColor=#E9F3E6;verticalAlign=top;align=left;spacingLeft=30;fontColor=#248814;dashed=0;" parent="B1sa2ZudID5PoaIgerf2-1" vertex="1">
          <mxGeometry x="1323" y="580" width="125" height="60" as="geometry" />
        </mxCell>
        <mxCell id="B1sa2ZudID5PoaIgerf2-24" value="Private subnet" style="points=[[0,0],[0.25,0],[0.5,0],[0.75,0],[1,0],[1,0.25],[1,0.5],[1,0.75],[1,1],[0.75,1],[0.5,1],[0.25,1],[0,1],[0,0.75],[0,0.5],[0,0.25]];outlineConnect=0;gradientColor=none;html=1;whiteSpace=wrap;fontSize=12;fontStyle=0;shape=mxgraph.aws4.group;grIcon=mxgraph.aws4.group_security_group;grStroke=0;strokeColor=#147EBA;fillColor=#E6F2F8;verticalAlign=top;align=left;spacingLeft=30;fontColor=#147EBA;dashed=0;" parent="B1sa2ZudID5PoaIgerf2-1" vertex="1">
          <mxGeometry x="1322.5" y="650" width="125" height="70" as="geometry" />
        </mxCell>
      </root>
    </mxGraphModel>
  </diagram>
  <diagram id="CXQNcjdl7U0031BQ_K84" name="High Availability">
    <mxGraphModel dx="868" dy="482" grid="1" gridSize="10" guides="1" tooltips="1" connect="1" arrows="1" fold="1" page="1" pageScale="1" pageWidth="850" pageHeight="1100" math="0" shadow="0">
      <root>
        <mxCell id="tabez8YpdDZnJcErxpW_-0" />
        <mxCell id="tabez8YpdDZnJcErxpW_-1" parent="tabez8YpdDZnJcErxpW_-0" />
        <mxCell id="tabez8YpdDZnJcErxpW_-2" value="Data Center 1&amp;nbsp;" style="rounded=1;whiteSpace=wrap;html=1;fontSize=9;align=left;verticalAlign=top;arcSize=3;fillColor=#eeeeee;strokeColor=#36393d;" parent="tabez8YpdDZnJcErxpW_-1" vertex="1">
          <mxGeometry x="195" y="40" width="580" height="280" as="geometry" />
        </mxCell>
        <mxCell id="tabez8YpdDZnJcErxpW_-3" value="Data Center 2" style="rounded=1;whiteSpace=wrap;html=1;fontSize=9;align=left;verticalAlign=top;arcSize=3;fillColor=#eeeeee;strokeColor=#36393d;" parent="tabez8YpdDZnJcErxpW_-1" vertex="1">
          <mxGeometry x="195" y="350" width="580" height="200" as="geometry" />
        </mxCell>
        <mxCell id="tabez8YpdDZnJcErxpW_-5" style="edgeStyle=orthogonalEdgeStyle;rounded=0;orthogonalLoop=1;jettySize=auto;html=1;exitX=0.5;exitY=0;exitDx=0;exitDy=0;entryX=0;entryY=0.5;entryDx=0;entryDy=0;endArrow=none;endFill=0;strokeWidth=1;fontSize=9;" parent="tabez8YpdDZnJcErxpW_-1" source="tabez8YpdDZnJcErxpW_-4" target="tabez8YpdDZnJcErxpW_-7" edge="1">
          <mxGeometry relative="1" as="geometry" />
        </mxCell>
        <mxCell id="tabez8YpdDZnJcErxpW_-6" style="edgeStyle=orthogonalEdgeStyle;rounded=0;orthogonalLoop=1;jettySize=auto;html=1;exitX=0.5;exitY=1;exitDx=0;exitDy=0;entryX=0;entryY=0.5;entryDx=0;entryDy=0;endArrow=none;endFill=0;strokeWidth=1;fontSize=9;" parent="tabez8YpdDZnJcErxpW_-1" source="tabez8YpdDZnJcErxpW_-4" target="tabez8YpdDZnJcErxpW_-8" edge="1">
          <mxGeometry relative="1" as="geometry" />
        </mxCell>
        <mxCell id="tabez8YpdDZnJcErxpW_-4" value="Load Balancer" style="rounded=1;whiteSpace=wrap;html=1;fontSize=9;align=center;arcSize=12;" parent="tabez8YpdDZnJcErxpW_-1" vertex="1">
          <mxGeometry x="104" y="304" width="50" height="50" as="geometry" />
        </mxCell>
        <mxCell id="tabez8YpdDZnJcErxpW_-42" style="edgeStyle=orthogonalEdgeStyle;rounded=0;orthogonalLoop=1;jettySize=auto;html=1;entryX=0;entryY=0.5;entryDx=0;entryDy=0;entryPerimeter=0;endArrow=none;endFill=0;strokeWidth=1;fontSize=9;" parent="tabez8YpdDZnJcErxpW_-1" source="tabez8YpdDZnJcErxpW_-7" target="tabez8YpdDZnJcErxpW_-11" edge="1">
          <mxGeometry relative="1" as="geometry" />
        </mxCell>
        <mxCell id="tabez8YpdDZnJcErxpW_-43" style="edgeStyle=orthogonalEdgeStyle;rounded=0;orthogonalLoop=1;jettySize=auto;html=1;entryX=0;entryY=0.5;entryDx=0;entryDy=0;entryPerimeter=0;endArrow=none;endFill=0;strokeWidth=1;fontSize=9;" parent="tabez8YpdDZnJcErxpW_-1" source="tabez8YpdDZnJcErxpW_-7" target="tabez8YpdDZnJcErxpW_-19" edge="1">
          <mxGeometry relative="1" as="geometry">
            <Array as="points">
              <mxPoint x="321" y="200" />
              <mxPoint x="321" y="249" />
            </Array>
          </mxGeometry>
        </mxCell>
        <mxCell id="tabez8YpdDZnJcErxpW_-7" value="Load Balancer" style="rounded=1;whiteSpace=wrap;html=1;fontSize=9;align=center;arcSize=12;" parent="tabez8YpdDZnJcErxpW_-1" vertex="1">
          <mxGeometry x="225" y="175" width="50" height="50" as="geometry" />
        </mxCell>
        <mxCell id="tabez8YpdDZnJcErxpW_-8" value="Load Balancer" style="rounded=1;whiteSpace=wrap;html=1;fontSize=9;align=center;arcSize=12;" parent="tabez8YpdDZnJcErxpW_-1" vertex="1">
          <mxGeometry x="225" y="435" width="50" height="50" as="geometry" />
        </mxCell>
        <mxCell id="tabez8YpdDZnJcErxpW_-22" style="edgeStyle=orthogonalEdgeStyle;rounded=0;orthogonalLoop=1;jettySize=auto;html=1;endArrow=none;endFill=0;strokeWidth=1;fontSize=9;" parent="tabez8YpdDZnJcErxpW_-1" source="tabez8YpdDZnJcErxpW_-11" target="tabez8YpdDZnJcErxpW_-14" edge="1">
          <mxGeometry relative="1" as="geometry" />
        </mxCell>
        <mxCell id="tabez8YpdDZnJcErxpW_-23" value="ODBC, JDBC, ADO.NET" style="edgeStyle=orthogonalEdgeStyle;rounded=0;orthogonalLoop=1;jettySize=auto;html=1;entryX=0;entryY=0.645;entryDx=0;entryDy=0;entryPerimeter=0;endArrow=none;endFill=0;strokeWidth=1;fontSize=9;" parent="tabez8YpdDZnJcErxpW_-1" source="tabez8YpdDZnJcErxpW_-11" target="tabez8YpdDZnJcErxpW_-15" edge="1">
          <mxGeometry x="0.3553" relative="1" as="geometry">
            <Array as="points">
              <mxPoint x="625" y="148" />
              <mxPoint x="625" y="249" />
              <mxPoint x="675" y="249" />
            </Array>
            <mxPoint as="offset" />
          </mxGeometry>
        </mxCell>
        <mxCell id="tabez8YpdDZnJcErxpW_-11" value="Web / Application &lt;br&gt;Servers" style="outlineConnect=0;dashed=0;verticalLabelPosition=bottom;verticalAlign=top;align=center;html=1;shape=mxgraph.aws3.traditional_server;fillColor=#ffcd28;fontSize=9;strokeColor=#d79b00;gradientColor=#ffa500;" parent="tabez8YpdDZnJcErxpW_-1" vertex="1">
          <mxGeometry x="367" y="118" width="30" height="60" as="geometry" />
        </mxCell>
        <mxCell id="tabez8YpdDZnJcErxpW_-14" value="Oracle" style="shadow=0;dashed=0;html=1;strokeColor=none;fillColor=#505050;labelPosition=center;verticalLabelPosition=bottom;verticalAlign=top;outlineConnect=0;align=center;shape=mxgraph.office.databases.database_server_green;fontSize=9;" parent="tabez8YpdDZnJcErxpW_-1" vertex="1">
          <mxGeometry x="675" y="118" width="43" height="59" as="geometry" />
        </mxCell>
        <mxCell id="tabez8YpdDZnJcErxpW_-15" value="SQL Server" style="shadow=0;dashed=0;html=1;strokeColor=none;fillColor=#505050;labelPosition=center;verticalLabelPosition=bottom;verticalAlign=top;outlineConnect=0;align=center;shape=mxgraph.office.databases.database_server_blue;fontSize=9;" parent="tabez8YpdDZnJcErxpW_-1" vertex="1">
          <mxGeometry x="675" y="218" width="43" height="62" as="geometry" />
        </mxCell>
        <mxCell id="tabez8YpdDZnJcErxpW_-16" value="Oracle" style="shadow=0;dashed=0;html=1;strokeColor=none;fillColor=#505050;labelPosition=center;verticalLabelPosition=bottom;verticalAlign=top;outlineConnect=0;align=center;shape=mxgraph.office.databases.database_server_green;fontSize=9;" parent="tabez8YpdDZnJcErxpW_-1" vertex="1">
          <mxGeometry x="675" y="374" width="43" height="57" as="geometry" />
        </mxCell>
        <mxCell id="tabez8YpdDZnJcErxpW_-17" value="SQL Server" style="shadow=0;dashed=0;html=1;strokeColor=none;fillColor=#505050;labelPosition=center;verticalLabelPosition=bottom;verticalAlign=top;outlineConnect=0;align=center;shape=mxgraph.office.databases.database_server_blue;fontSize=9;" parent="tabez8YpdDZnJcErxpW_-1" vertex="1">
          <mxGeometry x="675" y="469" width="43" height="57" as="geometry" />
        </mxCell>
        <mxCell id="tabez8YpdDZnJcErxpW_-25" style="edgeStyle=orthogonalEdgeStyle;rounded=0;orthogonalLoop=1;jettySize=auto;html=1;endArrow=none;endFill=0;strokeWidth=1;fontSize=9;" parent="tabez8YpdDZnJcErxpW_-1" source="tabez8YpdDZnJcErxpW_-18" target="tabez8YpdDZnJcErxpW_-14" edge="1">
          <mxGeometry relative="1" as="geometry">
            <Array as="points">
              <mxPoint x="625" y="249" />
              <mxPoint x="625" y="148" />
            </Array>
          </mxGeometry>
        </mxCell>
        <mxCell id="tabez8YpdDZnJcErxpW_-26" style="edgeStyle=orthogonalEdgeStyle;rounded=0;orthogonalLoop=1;jettySize=auto;html=1;endArrow=none;endFill=0;strokeWidth=1;fontSize=9;" parent="tabez8YpdDZnJcErxpW_-1" source="tabez8YpdDZnJcErxpW_-18" target="tabez8YpdDZnJcErxpW_-15" edge="1">
          <mxGeometry relative="1" as="geometry" />
        </mxCell>
        <mxCell id="tabez8YpdDZnJcErxpW_-18" value="Application &lt;br&gt;Servers" style="outlineConnect=0;dashed=0;verticalLabelPosition=bottom;verticalAlign=top;align=center;html=1;shape=mxgraph.aws3.traditional_server;fillColor=#ffcd28;fontSize=9;strokeColor=#d79b00;gradientColor=#ffa500;" parent="tabez8YpdDZnJcErxpW_-1" vertex="1">
          <mxGeometry x="547" y="218.5" width="30" height="60" as="geometry" />
        </mxCell>
        <mxCell id="tabez8YpdDZnJcErxpW_-38" style="edgeStyle=orthogonalEdgeStyle;rounded=0;orthogonalLoop=1;jettySize=auto;html=1;endArrow=none;endFill=0;strokeWidth=1;fontSize=9;" parent="tabez8YpdDZnJcErxpW_-1" source="tabez8YpdDZnJcErxpW_-19" target="tabez8YpdDZnJcErxpW_-18" edge="1">
          <mxGeometry relative="1" as="geometry" />
        </mxCell>
        <mxCell id="tabez8YpdDZnJcErxpW_-19" value="API &lt;br&gt;Gateway" style="outlineConnect=0;dashed=0;verticalLabelPosition=bottom;verticalAlign=top;align=center;html=1;shape=mxgraph.aws3.traditional_server;fillColor=#ffcd28;fontSize=9;strokeColor=#d79b00;gradientColor=#ffa500;" parent="tabez8YpdDZnJcErxpW_-1" vertex="1">
          <mxGeometry x="367" y="218.5" width="30" height="60" as="geometry" />
        </mxCell>
        <mxCell id="tabez8YpdDZnJcErxpW_-24" value="DNS Server" style="outlineConnect=0;dashed=0;verticalLabelPosition=bottom;verticalAlign=top;align=center;html=1;shape=mxgraph.aws3.traditional_server;fillColor=#ffcd28;fontSize=9;strokeColor=#d79b00;gradientColor=#ffa500;" parent="tabez8YpdDZnJcErxpW_-1" vertex="1">
          <mxGeometry x="600" y="50" width="30" height="60" as="geometry" />
        </mxCell>
        <mxCell id="tabez8YpdDZnJcErxpW_-30" value="Active Directory" style="aspect=fixed;pointerEvents=1;shadow=0;dashed=0;html=1;strokeColor=none;labelPosition=center;verticalLabelPosition=bottom;verticalAlign=top;align=center;fillColor=#00188D;shape=mxgraph.mscae.enterprise.ad_fs;fontSize=9;" parent="tabez8YpdDZnJcErxpW_-1" vertex="1">
          <mxGeometry x="503" y="52.5" width="44" height="55" as="geometry" />
        </mxCell>
        <mxCell id="tabez8YpdDZnJcErxpW_-36" value="" style="verticalLabelPosition=bottom;html=1;verticalAlign=top;align=center;shape=mxgraph.floorplan.wall;fillColor=#f8cecc;direction=south;fontSize=9;gradientColor=#ea6b66;strokeColor=#b85450;" parent="tabez8YpdDZnJcErxpW_-1" vertex="1">
          <mxGeometry x="301" y="60" width="10" height="250" as="geometry" />
        </mxCell>
        <mxCell id="tabez8YpdDZnJcErxpW_-37" value="&lt;font style=&quot;font-size: 10px&quot;&gt;Outer &lt;br&gt;Firewall&lt;/font&gt;" style="outlineConnect=0;gradientColor=#ea6b66;fillColor=#f8cecc;strokeColor=#b85450;dashed=0;verticalLabelPosition=bottom;verticalAlign=top;align=center;html=1;fontSize=12;fontStyle=0;aspect=fixed;pointerEvents=1;shape=mxgraph.aws4.generic_firewall;" parent="tabez8YpdDZnJcErxpW_-1" vertex="1">
          <mxGeometry x="251" y="52.5" width="50" height="42.31" as="geometry" />
        </mxCell>
        <mxCell id="tabez8YpdDZnJcErxpW_-40" value="" style="verticalLabelPosition=bottom;html=1;verticalAlign=top;align=center;shape=mxgraph.floorplan.wall;fillColor=#f8cecc;direction=south;fontSize=9;gradientColor=#ea6b66;strokeColor=#b85450;" parent="tabez8YpdDZnJcErxpW_-1" vertex="1">
          <mxGeometry x="449" y="57.5" width="10" height="250" as="geometry" />
        </mxCell>
        <mxCell id="tabez8YpdDZnJcErxpW_-41" value="&lt;span style=&quot;font-size: 10px&quot;&gt;Inner &lt;br&gt;Firewall&lt;/span&gt;" style="outlineConnect=0;gradientColor=#ea6b66;fillColor=#f8cecc;strokeColor=#b85450;dashed=0;verticalLabelPosition=bottom;verticalAlign=top;align=center;html=1;fontSize=12;fontStyle=0;aspect=fixed;pointerEvents=1;shape=mxgraph.aws4.generic_firewall;" parent="tabez8YpdDZnJcErxpW_-1" vertex="1">
          <mxGeometry x="399" y="50" width="50" height="42.31" as="geometry" />
        </mxCell>
      </root>
    </mxGraphModel>
  </diagram>
</mxfile>
